<svg width="750" height="314" viewBox="0 0 750 314" fill="none" xmlns="http://www.w3.org/2000/svg">
<path d="M750 167.2H740V169.2H750V167.2Z" fill="white"/>
<path d="M615.39 299.49C615.37 299.49 615.35 299.49 615.33 299.49C606 301.5 606.046 299.42 600.536 297.84L599.259 297.5C604.589 299.03 601.846 297.23 615.33 297.5C616.24 297.49 617.2 297.48 618.13 297.44L618.22 299.44C617.27 299.46 616.32 299.49 615.39 299.49ZM372.66 299.49C370.73 299.49 368.79 299.4 366.88 299.22L367.06 297.23C373.51 297.83 380.14 297.38 386.43 295.89L386.89 297.84C382.26 298.93 377.47 299.49 372.66 299.49ZM135.67 299.23L135.49 297.24C142 296.65 148.32 295 154.27 292.35L155.08 294.18C148.93 296.91 142.4 298.61 135.67 299.23ZM115.65 297.78C109.11 296.2 102.9 293.55 97.1899 289.9L98.2699 288.21C103.79 291.74 109.8 294.3 116.12 295.84L115.65 297.78ZM637.85 295.24L637.12 293.38C643.18 291 648.79 287.65 653.79 283.43L655.08 284.96C649.91 289.33 644.11 292.78 637.85 295.24ZM347.47 294.12C341.32 291.37 335.7 287.64 330.74 283.04L332.1 281.57C336.9 286.02 342.35 289.63 348.29 292.29L347.47 294.12ZM405.41 290.08L404.35 288.39C409.87 284.92 414.77 280.6 418.9 275.54L420.45 276.81C416.18 282.03 411.12 286.5 405.41 290.08ZM580.17 288.49C574.63 284.64 569.79 279.94 565.77 274.52L567.38 273.33C571.27 278.58 575.96 283.12 581.32 286.85L580.17 288.49ZM171.83 283.13L170.47 281.66C175.27 277.22 179.29 272.07 182.41 266.35L184.17 267.31C180.95 273.22 176.8 278.54 171.83 283.13ZM82.2599 276.51C78.0199 271.26 74.6799 265.4 72.3099 259.09L74.1799 258.39C76.4699 264.5 79.7099 270.17 83.8099 275.25L82.2599 276.51ZM668.11 269.71L666.4 268.67C669.79 263.08 672.21 257.01 673.61 250.64L675.56 251.07C674.12 257.66 671.61 263.93 668.11 269.71ZM318.43 267.2C315.21 261.27 313 254.89 311.87 248.24L313.84 247.9C314.93 254.33 317.07 260.51 320.19 266.25L318.43 267.2ZM430.44 259.4L428.57 258.7C430.85 252.6 432.1 246.19 432.3 239.64L434.3 239.7C434.1 246.47 432.8 253.1 430.44 259.4ZM556.59 256.67C554.64 250.6 553.66 244.26 553.66 237.82V236.83H555.66V237.82C555.66 244.05 556.62 250.18 558.5 256.06L556.59 256.67ZM190.77 248.35L188.8 248.01C189.37 244.67 189.67 241.24 189.67 237.82V228.4H191.67V237.82C191.67 241.35 191.36 244.89 190.77 248.35ZM68.3799 239.41C68.3499 238.63 68.3399 237.84 68.3399 237.06V219.54H70.3399V237.05C70.3399 237.81 70.3499 238.57 70.3799 239.33L68.3799 239.41ZM676.99 231.14H674.99V211.3H676.99V231.14ZM313 228.28H311V208.45H313V228.28ZM434.33 219.84H432.33V200.01H434.33V219.84ZM555.66 217H553.66V197.17H555.66V217ZM191.67 208.57H189.67V188.74H191.67V208.57ZM70.3299 199.71H68.3299V191.32C68.3299 187.65 67.3399 184.06 65.4799 180.93L67.1999 179.91C69.2499 183.35 70.3299 187.3 70.3299 191.33V199.71ZM676.99 191.47H674.99V186.74C674.99 181.31 677.17 176.26 681.12 172.53L682.49 173.98C678.94 177.33 676.99 181.86 676.99 186.74V191.47ZM313 188.62H311V168.78H313V188.62ZM434.33 180.17H432.33V160.34H434.33V180.17ZM555.66 177.33H553.66V157.5H555.66V177.33ZM50.1399 171.08C49.4299 171 48.6999 170.97 47.9799 170.97H30.4199V168.97H47.9799C48.7699 168.97 49.5699 169.01 50.3499 169.09L50.1399 171.08ZM720.17 169.2H700.34V167.2H720.17V169.2ZM191.67 168.9H189.67V149.06H191.67V168.9ZM313 148.95H311V145.17C311 139.88 310.31 134.63 308.94 129.57L310.87 129.05C312.28 134.28 313 139.7 313 145.17V148.95ZM434.5 140.59L432.51 140.44C433.02 133.7 434.62 127.14 437.27 120.95L439.11 121.74C436.55 127.72 435 134.06 434.5 140.59ZM553.21 137.81C552.41 131.32 550.57 125.06 547.72 119.19L549.52 118.32C552.46 124.39 554.37 130.87 555.19 137.57L553.21 137.81ZM193.7 129.67L191.77 129.15C193.51 122.64 196.31 116.5 200.07 110.88L201.73 111.99C198.08 117.43 195.38 123.38 193.7 129.67ZM300.87 111.9C297.23 106.49 292.75 101.73 287.56 97.76L288.78 96.17C294.14 100.27 298.76 105.19 302.53 110.79L300.87 111.9ZM449.54 105.36L448.05 104.03C452.56 99 457.82 94.77 463.68 91.45L464.66 93.19C459 96.4 453.91 100.49 449.54 105.36ZM536.52 103.32C531.94 98.66 526.66 94.81 520.84 91.87L521.74 90.08C527.75 93.12 533.2 97.1 537.94 101.91L536.52 103.32ZM215 97.83L213.78 96.24C219.14 92.12 225.09 88.93 231.47 86.76L232.11 88.65C225.95 90.76 220.19 93.84 215 97.83ZM270.44 88.62C264.3 86.55 257.87 85.49 251.33 85.5L251.28 84.5V83.5C258.09 83.5 264.74 84.59 271.08 86.73L270.44 88.62ZM482.91 86.53L482.54 84.56C489.1 83.33 495.99 83.17 502.6 84.09L502.32 86.07C495.92 85.18 489.26 85.33 482.91 86.53Z" fill="white"/>
<path d="M10 168.97H0V170.97H10V168.97Z" fill="white"/>
<path d="M598 295L608.5 296H619V303H598V295Z" fill="#3C3C3B"/>
<path d="M365 297L389 295.5V302H365V297Z" fill="#3C3C3B"/>
<rect x="251" y="83" width="20" height="7" fill="#3C3C3B"/>
<rect x="482" y="80" width="22" height="7" fill="#3C3C3B"/>
<g clip-path="url(#clip0_0_1)">
<path d="M615.33 312.99C573.882 312.99 540.16 279.268 540.16 237.82V145.17C540.16 119.718 519.453 99 493.99 99C468.538 99 447.82 119.708 447.82 145.17V237.82C447.82 279.268 414.098 312.99 372.65 312.99C331.203 312.99 297.48 279.268 297.48 237.82V145.17C297.48 119.718 276.773 99 251.31 99C225.858 99 205.14 119.708 205.14 145.17V237.82C205.14 258.004 197.257 276.948 182.926 291.17C168.733 305.254 149.956 312.99 129.98 312.99H129.979H129.978H129.977H129.976H129.975H129.974H129.973H129.971H129.97H129.969H129.968H129.967H129.966H129.965H129.964H129.962H129.961H129.96H129.959H129.958H129.957H129.956H129.955H129.954H129.952H129.951H129.95H129.949H129.948H129.947H129.946H129.945H129.943H129.942H129.941H129.94H129.939H129.938H129.937H129.936H129.935H129.933H129.932H129.931H129.93H129.929H129.928H129.927H129.926H129.924H129.923H129.922H129.921H129.92H129.919H129.918H129.917H129.915H129.914H129.913H129.912H129.911H129.91H129.909H129.908H129.906H129.905H129.904H129.903H129.902H129.901H129.9H129.899H129.897H129.896H129.895H129.894H129.893H129.892H129.891H129.889H129.888H129.887H129.886H129.885H129.884H129.883H129.882H129.88H129.879H129.878H129.877H129.876H129.875H129.874H129.873H129.871H129.87H129.869H129.868H129.867H129.866H129.865H129.863H129.862H129.861H129.86H129.859H129.858H129.857H129.856H129.854H129.853H129.852H129.851H129.85H129.849H129.848H129.846H129.845H129.844H129.843H129.842H129.841H129.84H129.839H129.837H129.836H129.835H129.834H129.833H129.832H129.831H129.829H129.828H129.827H129.826H129.825H129.824H129.823H129.822H129.82H129.819H129.818H129.817H129.816H129.815H129.814H129.812H129.811H129.81H129.809H129.808H129.807H129.806H129.804H129.803H129.802H129.801H129.8H129.799H129.798H129.796H129.795H129.794H129.793H129.792H129.791H129.79H129.788H129.787H129.786H129.785H129.784H129.783H129.782H129.781H129.779H129.778H129.777H129.776H129.775H129.774H129.773H129.771H129.77H129.769H129.768H129.767H129.766H129.765H129.763H129.762H129.761H129.76H129.759H129.758H129.757H129.755H129.754H129.753H129.752H129.751H129.75H129.749H129.747H129.746H129.745H129.744H129.743H129.742H129.741H129.739H129.738H129.737H129.736H129.735H129.734H129.733H129.731H129.73H129.729H129.728H129.727H129.726H129.725H129.723H129.722H129.721H129.72H129.719H129.718H129.717H129.715H129.714H129.713H129.712H129.711H129.71H129.709H129.707H129.706H129.705H129.704H129.703H129.702H129.701H129.699H129.698H129.697H129.696H129.695H129.694H129.693H129.691H129.69H129.689H129.688H129.687H129.686H129.685H129.683H129.682H129.681H129.68H129.679H129.678H129.677H129.675H129.674H129.673H129.672H129.671H129.67H129.669H129.667H129.666H129.665H129.664H129.663H129.662H129.661H129.659H129.658H129.657H129.656H129.655H129.654H129.653H129.651H129.65H129.649H129.648H129.647H129.646H129.645H129.643H129.642H129.641H129.64H129.639H129.638H129.637H129.635H129.634H129.633H129.632H129.631H129.63H129.629H129.628H129.626H129.625H129.624H129.623H129.622H129.621H129.62H129.618H129.617H129.616H129.615H129.614H129.613H129.612H129.61H129.609H129.608H129.607H129.606H129.605H129.604H129.602H129.601H129.6H129.599H129.598H129.597H129.596H129.594H129.593H129.592H129.591H129.59H129.589H129.588H129.586H129.585H129.584H129.583H129.582H129.581H129.58H129.578H129.577H129.576H129.575H129.574H129.573H129.572H129.571H129.569H129.568H129.567H129.566H129.565H129.564H129.563H129.561H129.56H129.559H129.558H129.557H129.556H129.555H129.553H129.552H129.551H129.55H129.549H129.548H129.547H129.546H129.544H129.543H129.542H129.541H129.54H129.539H129.538H129.536H129.535H129.534H129.533H129.532H129.531H129.53H129.529H129.527H129.526H129.525H129.524H129.523H129.522H129.521H129.519H129.518H129.517H129.516H129.515H129.514H129.513H129.512H129.51H129.509H129.508H129.507H129.506H129.505H129.504H129.502H129.501H129.5H129.499H129.498H129.497H129.496H129.495H129.493H129.492H129.491H129.49H129.489H129.488H129.487H129.486H129.484H129.483H129.482H129.481H129.48H129.479H129.478H129.477H129.475H129.474H129.473H129.472H129.471H129.47H129.469H129.467H129.466H129.465H129.464H129.463H129.462H129.461H129.46H129.459H129.457H129.456H129.455H129.454H129.453H129.452H129.451H129.45H129.448H129.447H129.446H129.445H129.444H129.443H129.442H129.441H129.439H129.438H129.437H129.436H129.435H129.434H129.433H129.432H129.43H129.429H129.428H129.427H129.426H129.425H129.424H129.423H129.422H129.42H129.419H129.418H129.417H129.416H129.415H129.414H129.413H129.411H129.41H129.409H129.408H129.407H129.406H129.405H129.404C88.3003 312.682 53.8099 276.645 53.8099 235.06V189.32C53.8099 185.537 50.7311 182.47 46.9599 182.47H0V153.47H46.9799C66.7477 153.47 82.83 169.552 82.83 189.32V235.06C82.83 260.707 104.342 283.795 129.642 283.99C142.09 284.092 153.726 279.317 162.515 270.59C171.314 261.862 176.16 250.216 176.16 237.82V145.17C176.16 103.722 209.883 70 251.33 70C292.778 70 326.5 103.722 326.5 145.17V237.82C326.5 263.272 347.208 283.99 372.67 283.99C398.122 283.99 418.84 263.282 418.84 237.82V145.17C418.83 103.722 452.552 70 493.99 70C535.438 70 569.16 103.722 569.16 145.17V237.82C569.16 263.272 589.868 283.99 615.33 283.99C640.792 283.99 661.5 263.282 661.5 237.82V186.74C661.5 168.522 676.323 153.7 694.54 153.7H749V182.7H694.53C692.298 182.7 690.49 184.508 690.49 186.74V237.82C690.49 279.268 656.768 312.99 615.33 312.99Z" fill="#3C3C3B" stroke="black" stroke-width="2"/>
<path d="M751 154.7L740 154.7L740.5 181.7H751V154.7Z" fill="#3C3C3B"/>
<path d="M750 167.2H740V169.2H750V167.2Z" fill="white"/>
<path d="M615.39 299.49C615.37 299.49 615.35 299.49 615.33 299.49C606 301.5 606.046 299.42 600.536 297.84L599.259 297.5C604.589 299.03 601.846 297.23 615.33 297.5C616.24 297.49 617.2 297.48 618.13 297.44L618.22 299.44C617.27 299.46 616.32 299.49 615.39 299.49ZM372.66 299.49C370.73 299.49 368.79 299.4 366.88 299.22L367.06 297.23C373.51 297.83 380.14 297.38 386.43 295.89L386.89 297.84C382.26 298.93 377.47 299.49 372.66 299.49ZM135.67 299.23L135.49 297.24C142 296.65 148.32 295 154.27 292.35L155.08 294.18C148.93 296.91 142.4 298.61 135.67 299.23ZM115.65 297.78C109.11 296.2 102.9 293.55 97.1899 289.9L98.2699 288.21C103.79 291.74 109.8 294.3 116.12 295.84L115.65 297.78ZM637.85 295.24L637.12 293.38C643.18 291 648.79 287.65 653.79 283.43L655.08 284.96C649.91 289.33 644.11 292.78 637.85 295.24ZM347.47 294.12C341.32 291.37 335.7 287.64 330.74 283.04L332.1 281.57C336.9 286.02 342.35 289.63 348.29 292.29L347.47 294.12ZM405.41 290.08L404.35 288.39C409.87 284.92 414.77 280.6 418.9 275.54L420.45 276.81C416.18 282.03 411.12 286.5 405.41 290.08ZM580.17 288.49C574.63 284.64 569.79 279.94 565.77 274.52L567.38 273.33C571.27 278.58 575.96 283.12 581.32 286.85L580.17 288.49ZM171.83 283.13L170.47 281.66C175.27 277.22 179.29 272.07 182.41 266.35L184.17 267.31C180.95 273.22 176.8 278.54 171.83 283.13ZM82.2599 276.51C78.0199 271.26 74.6799 265.4 72.3099 259.09L74.1799 258.39C76.4699 264.5 79.7099 270.17 83.8099 275.25L82.2599 276.51ZM668.11 269.71L666.4 268.67C669.79 263.08 672.21 257.01 673.61 250.64L675.56 251.07C674.12 257.66 671.61 263.93 668.11 269.71ZM318.43 267.2C315.21 261.27 313 254.89 311.87 248.24L313.84 247.9C314.93 254.33 317.07 260.51 320.19 266.25L318.43 267.2ZM430.44 259.4L428.57 258.7C430.85 252.6 432.1 246.19 432.3 239.64L434.3 239.7C434.1 246.47 432.8 253.1 430.44 259.4ZM556.59 256.67C554.64 250.6 553.66 244.26 553.66 237.82V236.83H555.66V237.82C555.66 244.05 556.62 250.18 558.5 256.06L556.59 256.67ZM190.77 248.35L188.8 248.01C189.37 244.67 189.67 241.24 189.67 237.82V228.4H191.67V237.82C191.67 241.35 191.36 244.89 190.77 248.35ZM68.3799 239.41C68.3499 238.63 68.3399 237.84 68.3399 237.06V219.54H70.3399V237.05C70.3399 237.81 70.3499 238.57 70.3799 239.33L68.3799 239.41ZM676.99 231.14H674.99V211.3H676.99V231.14ZM313 228.28H311V208.45H313V228.28ZM434.33 219.84H432.33V200.01H434.33V219.84ZM555.66 217H553.66V197.17H555.66V217ZM191.67 208.57H189.67V188.74H191.67V208.57ZM70.3299 199.71H68.3299V191.32C68.3299 187.65 67.3399 184.06 65.4799 180.93L67.1999 179.91C69.2499 183.35 70.3299 187.3 70.3299 191.33V199.71ZM676.99 191.47H674.99V186.74C674.99 181.31 677.17 176.26 681.12 172.53L682.49 173.98C678.94 177.33 676.99 181.86 676.99 186.74V191.47ZM313 188.62H311V168.78H313V188.62ZM434.33 180.17H432.33V160.34H434.33V180.17ZM555.66 177.33H553.66V157.5H555.66V177.33ZM48.1399 169.2C47.4299 169.12 46.6999 169.2 45.9799 169.2H28.4199V167.2H45.9799C46.7699 167.2 47.42 167.12 48.2 167.2L48.1399 169.2ZM720.17 169.2H700.34V167.2H720.17V169.2ZM191.67 168.9H189.67V149.06H191.67V168.9ZM313 148.95H311V145.17C311 139.88 310.31 134.63 308.94 129.57L310.87 129.05C312.28 134.28 313 139.7 313 145.17V148.95ZM434.5 140.59L432.51 140.44C433.02 133.7 434.62 127.14 437.27 120.95L439.11 121.74C436.55 127.72 435 134.06 434.5 140.59ZM553.21 137.81C552.41 131.32 550.57 125.06 547.72 119.19L549.52 118.32C552.46 124.39 554.37 130.87 555.19 137.57L553.21 137.81ZM193.7 129.67L191.77 129.15C193.51 122.64 196.31 116.5 200.07 110.88L201.73 111.99C198.08 117.43 195.38 123.38 193.7 129.67ZM300.87 111.9C297.23 106.49 292.75 101.73 287.56 97.76L288.78 96.17C294.14 100.27 298.76 105.19 302.53 110.79L300.87 111.9ZM449.54 105.36L448.05 104.03C452.56 99 457.82 94.77 463.68 91.45L464.66 93.19C459 96.4 453.91 100.49 449.54 105.36ZM536.52 103.32C531.94 98.66 526.66 94.81 520.84 91.87L521.74 90.08C527.75 93.12 533.2 97.1 537.94 101.91L536.52 103.32ZM215 97.83L213.78 96.24C219.14 92.12 225.09 88.93 231.47 86.76L232.11 88.65C225.95 90.76 220.19 93.84 215 97.83ZM270.44 88.62C264.3 86.55 257.87 85.49 251.33 85.5L251.28 84.5V83.5C258.09 83.5 264.74 84.59 271.08 86.73L270.44 88.62ZM482.91 86.53L482.54 84.56C489.1 83.33 495.99 83.17 502.6 84.09L502.32 86.07C495.92 85.18 489.26 85.33 482.91 86.53Z" fill="white"/>
<path d="M0 154.5L11 154.5L10.5 181.45L0 181.5V154.5Z" fill="#3C3C3B"/>
<path d="M10 167.2H0V169.2H10V167.2Z" fill="white"/>
<path d="M598 295L608.5 296H619V303H598V295Z" fill="#3C3C3B"/>
<path d="M365 297L389 295.5V302H365V297Z" fill="#3C3C3B"/>
<rect x="251" y="83" width="20" height="7" fill="#3C3C3B"/>
<rect x="482" y="80" width="22" height="7" fill="#3C3C3B"/>
</g>
<g clip-path="url(#clip1_0_1)">
<path d="M616.761 295.11C609.037 295.11 602.784 293.682 602.784 291.919C602.784 290.155 609.046 288.728 616.761 288.728C624.486 288.728 630.739 290.155 630.739 291.919C630.739 293.682 624.486 295.11 616.761 295.11Z" fill="#1D1D1B"/>
<path d="M616.761 209.327C600.504 209.327 587.327 222.504 587.327 238.761C587.327 249.281 592.849 258.502 601.141 263.706L616.761 291.919L632.382 263.706C640.682 258.502 646.196 249.272 646.196 238.761" fill="#004AB3"/>
<path d="M616.761 209.327C600.504 209.327 587.327 222.504 587.327 238.761C587.327 249.281 592.849 258.502 601.141 263.706L616.761 291.919L632.382 263.706C640.682 258.502 646.196 249.272 646.196 238.761" stroke="#1D1D1B" stroke-width="0.75" stroke-miterlimit="10" stroke-linecap="round" stroke-linejoin="round"/>
<path d="M646.196 238.761C646.196 222.504 633.018 209.327 616.761 209.327Z" fill="#004AB3"/>
<path d="M646.196 238.761C646.196 222.504 633.018 209.327 616.761 209.327" stroke="#1D1D1B" stroke-width="0.75" stroke-miterlimit="10" stroke-linecap="round" stroke-linejoin="round"/>
<path d="M616.761 213.98C630.455 213.98 641.56 225.085 641.56 238.779C641.56 252.481 630.455 263.577 616.761 263.577C603.059 263.577 591.963 252.472 591.963 238.779C591.963 225.085 603.059 213.98 616.761 213.98Z" fill="white" stroke="#1D1D1B" stroke-width="0.75" stroke-miterlimit="10" stroke-linecap="round" stroke-linejoin="round"/>
<path d="M616.761 252.979C624.6 252.979 630.954 246.625 630.954 238.787C630.954 230.948 624.6 224.594 616.761 224.594C608.923 224.594 602.569 230.948 602.569 238.787C602.569 246.625 608.923 252.979 616.761 252.979Z" fill="#004AB3" stroke="#1D1D1B" stroke-width="0.75" stroke-miterlimit="10" stroke-linecap="round" stroke-linejoin="round"/>
<path d="M616.761 229.841V219.339" stroke="#1D1D1B" stroke-width="0.75" stroke-miterlimit="10" stroke-linecap="round" stroke-linejoin="round"/>
<path d="M616.761 258.235V247.732" stroke="#1D1D1B" stroke-width="0.75" stroke-miterlimit="10" stroke-linecap="round" stroke-linejoin="round"/>
<path d="M625.707 238.787H636.209" stroke="#1D1D1B" stroke-width="0.75" stroke-miterlimit="10" stroke-linecap="round" stroke-linejoin="round"/>
<path d="M597.313 238.787H607.816" stroke="#1D1D1B" stroke-width="0.75" stroke-miterlimit="10" stroke-linecap="round" stroke-linejoin="round"/>
<path d="M616.761 240.645C617.787 240.645 618.619 239.813 618.619 238.787C618.619 237.761 617.787 236.929 616.761 236.929C615.735 236.929 614.903 237.761 614.903 238.787C614.903 239.813 615.735 240.645 616.761 240.645Z" fill="#004AB3" stroke="#1D1D1B" stroke-width="0.75" stroke-miterlimit="10" stroke-linecap="round" stroke-linejoin="round"/>
</g>
<g clip-path="url(#clip2_0_1)">
<path d="M616.761 295.11C609.037 295.11 602.784 293.682 602.784 291.919C602.784 290.155 609.046 288.728 616.761 288.728C624.486 288.728 630.739 290.155 630.739 291.919C630.739 293.682 624.486 295.11 616.761 295.11Z" fill="#1D1D1B"/>
<path d="M616.761 209.327C600.504 209.327 587.327 222.504 587.327 238.761C587.327 249.281 592.849 258.502 601.141 263.706L616.761 291.919L632.382 263.706C640.682 258.502 646.196 249.272 646.196 238.761" fill="#004AB3"/>
<path d="M616.761 209.327C600.504 209.327 587.327 222.504 587.327 238.761C587.327 249.281 592.849 258.502 601.141 263.706L616.761 291.919L632.382 263.706C640.682 258.502 646.196 249.272 646.196 238.761" stroke="#1D1D1B" stroke-width="0.75" stroke-miterlimit="10" stroke-linecap="round" stroke-linejoin="round"/>
<path d="M646.196 238.761C646.196 222.504 633.018 209.327 616.761 209.327Z" fill="#004AB3"/>
<path d="M646.196 238.761C646.196 222.504 633.018 209.327 616.761 209.327" stroke="#1D1D1B" stroke-width="0.75" stroke-miterlimit="10" stroke-linecap="round" stroke-linejoin="round"/>
<path d="M616.761 213.98C630.455 213.98 641.56 225.085 641.56 238.779C641.56 252.481 630.455 263.577 616.761 263.577C603.059 263.577 591.963 252.472 591.963 238.779C591.963 225.085 603.059 213.98 616.761 213.98Z" fill="white" stroke="#1D1D1B" stroke-width="0.75" stroke-miterlimit="10" stroke-linecap="round" stroke-linejoin="round"/>
<path d="M616.761 252.979C624.6 252.979 630.954 246.625 630.954 238.787C630.954 230.948 624.6 224.594 616.761 224.594C608.923 224.594 602.569 230.948 602.569 238.787C602.569 246.625 608.923 252.979 616.761 252.979Z" fill="#004AB3" stroke="#1D1D1B" stroke-width="0.75" stroke-miterlimit="10" stroke-linecap="round" stroke-linejoin="round"/>
<path d="M616.761 229.841V219.339" stroke="#1D1D1B" stroke-width="0.75" stroke-miterlimit="10" stroke-linecap="round" stroke-linejoin="round"/>
<path d="M616.761 258.235V247.732" stroke="#1D1D1B" stroke-width="0.75" stroke-miterlimit="10" stroke-linecap="round" stroke-linejoin="round"/>
<path d="M625.707 238.787H636.209" stroke="#1D1D1B" stroke-width="0.75" stroke-miterlimit="10" stroke-linecap="round" stroke-linejoin="round"/>
<path d="M597.313 238.787H607.816" stroke="#1D1D1B" stroke-width="0.75" stroke-miterlimit="10" stroke-linecap="round" stroke-linejoin="round"/>
<path d="M616.761 240.645C617.787 240.645 618.619 239.813 618.619 238.787C618.619 237.761 617.787 236.929 616.761 236.929C615.735 236.929 614.903 237.761 614.903 238.787C614.903 239.813 615.735 240.645 616.761 240.645Z" fill="#004AB3" stroke="#1D1D1B" stroke-width="0.75" stroke-miterlimit="10" stroke-linecap="round" stroke-linejoin="round"/>
</g>
<g clip-path="url(#clip3_0_1)">
<path d="M494.761 87.1099C502.481 87.1099 508.739 85.6811 508.739 83.9187C508.739 82.1563 502.481 80.7275 494.761 80.7275C487.042 80.7275 480.784 82.1563 480.784 83.9187C480.784 85.6811 487.042 87.1099 494.761 87.1099Z" fill="#1D1D1B"/>
<path d="M524.196 30.7611C524.196 14.5042 511.018 1.32666 494.761 1.32666C478.504 1.32666 465.327 14.5042 465.327 30.7611C465.327 41.2808 470.849 50.5017 479.141 55.7056L494.761 83.9186L510.382 55.7056C518.682 50.5017 524.196 41.2808 524.196 30.7611Z" fill="#16C58E" stroke="#1D1D1B" stroke-width="0.75" stroke-miterlimit="10" stroke-linecap="round" stroke-linejoin="round"/>
<path d="M494.761 55.5852C508.457 55.5852 519.56 44.4827 519.56 30.787C519.56 17.0913 508.457 5.98877 494.761 5.98877C481.066 5.98877 469.963 17.0913 469.963 30.787C469.963 44.4827 481.066 55.5852 494.761 55.5852Z" fill="white" stroke="#1D1D1B" stroke-width="0.75" stroke-miterlimit="10" stroke-linecap="round" stroke-linejoin="round"/>
<path d="M494.761 50.235C505.502 50.235 514.209 41.5278 514.209 30.787C514.209 20.0461 505.502 11.3389 494.761 11.3389C484.02 11.3389 475.313 20.0461 475.313 30.787C475.313 41.5278 484.02 50.235 494.761 50.235Z" fill="#16C58E" stroke="#1D1D1B" stroke-width="0.75" stroke-miterlimit="10" stroke-linecap="round" stroke-linejoin="round"/>
<path d="M494.761 46.7512C503.578 46.7512 510.726 39.6036 510.726 30.7867C510.726 21.9698 503.578 14.8223 494.761 14.8223C485.944 14.8223 478.797 21.9698 478.797 30.7867C478.797 39.6036 485.944 46.7512 494.761 46.7512Z" fill="white" stroke="#1D1D1B" stroke-width="0.75" stroke-miterlimit="10" stroke-linecap="round" stroke-linejoin="round"/>
<path d="M494.323 31.0706L500.223 23.3809" stroke="#1D1D1B" stroke-width="0.75" stroke-miterlimit="10" stroke-linecap="round" stroke-linejoin="round"/>
<path d="M494.323 31.0708L503.595 38.1843" stroke="#1D1D1B" stroke-width="0.75" stroke-miterlimit="10" stroke-linecap="round" stroke-linejoin="round"/>
<path d="M494.761 46.7513V44.1021" stroke="#1D1D1B" stroke-width="0.75" stroke-miterlimit="10" stroke-linecap="round" stroke-linejoin="round"/>
<path d="M494.761 17.4629V14.8223" stroke="#1D1D1B" stroke-width="0.75" stroke-miterlimit="10" stroke-linecap="round" stroke-linejoin="round"/>
<path d="M478.797 30.7871H481.438" stroke="#1D1D1B" stroke-width="0.75" stroke-miterlimit="10" stroke-linecap="round" stroke-linejoin="round"/>
<path d="M508.085 30.7871H510.726" stroke="#1D1D1B" stroke-width="0.75" stroke-miterlimit="10" stroke-linecap="round" stroke-linejoin="round"/>
<path d="M494.761 32.0513C495.46 32.0513 496.026 31.4852 496.026 30.7869C496.026 30.0886 495.46 29.5225 494.761 29.5225C494.063 29.5225 493.497 30.0886 493.497 30.7869C493.497 31.4852 494.063 32.0513 494.761 32.0513Z" fill="#16C58E" stroke="#1D1D1B" stroke-width="0.75" stroke-miterlimit="10" stroke-linecap="round" stroke-linejoin="round"/>
</g>
<g clip-path="url(#clip4_0_1)">
<path d="M494.761 87.1099C502.481 87.1099 508.739 85.6811 508.739 83.9187C508.739 82.1563 502.481 80.7275 494.761 80.7275C487.042 80.7275 480.784 82.1563 480.784 83.9187C480.784 85.6811 487.042 87.1099 494.761 87.1099Z" fill="#1D1D1B"/>
<path d="M524.196 30.7611C524.196 14.5042 511.018 1.32666 494.761 1.32666C478.504 1.32666 465.327 14.5042 465.327 30.7611C465.327 41.2808 470.849 50.5017 479.141 55.7056L494.761 83.9186L510.382 55.7056C518.682 50.5017 524.196 41.2808 524.196 30.7611Z" fill="#16C58E" stroke="#1D1D1B" stroke-width="0.75" stroke-miterlimit="10" stroke-linecap="round" stroke-linejoin="round"/>
<path d="M494.761 55.5852C508.457 55.5852 519.56 44.4827 519.56 30.787C519.56 17.0913 508.457 5.98877 494.761 5.98877C481.066 5.98877 469.963 17.0913 469.963 30.787C469.963 44.4827 481.066 55.5852 494.761 55.5852Z" fill="white" stroke="#1D1D1B" stroke-width="0.75" stroke-miterlimit="10" stroke-linecap="round" stroke-linejoin="round"/>
<path d="M494.761 50.235C505.502 50.235 514.209 41.5278 514.209 30.787C514.209 20.0461 505.502 11.3389 494.761 11.3389C484.02 11.3389 475.313 20.0461 475.313 30.787C475.313 41.5278 484.02 50.235 494.761 50.235Z" fill="#16C58E" stroke="#1D1D1B" stroke-width="0.75" stroke-miterlimit="10" stroke-linecap="round" stroke-linejoin="round"/>
<path d="M494.761 46.7512C503.578 46.7512 510.726 39.6036 510.726 30.7867C510.726 21.9698 503.578 14.8223 494.761 14.8223C485.944 14.8223 478.797 21.9698 478.797 30.7867C478.797 39.6036 485.944 46.7512 494.761 46.7512Z" fill="white" stroke="#1D1D1B" stroke-width="0.75" stroke-miterlimit="10" stroke-linecap="round" stroke-linejoin="round"/>
<path d="M494.323 31.0706L500.223 23.3809" stroke="#1D1D1B" stroke-width="0.75" stroke-miterlimit="10" stroke-linecap="round" stroke-linejoin="round"/>
<path d="M494.323 31.0708L503.595 38.1843" stroke="#1D1D1B" stroke-width="0.75" stroke-miterlimit="10" stroke-linecap="round" stroke-linejoin="round"/>
<path d="M494.761 46.7513V44.1021" stroke="#1D1D1B" stroke-width="0.75" stroke-miterlimit="10" stroke-linecap="round" stroke-linejoin="round"/>
<path d="M494.761 17.4629V14.8223" stroke="#1D1D1B" stroke-width="0.75" stroke-miterlimit="10" stroke-linecap="round" stroke-linejoin="round"/>
<path d="M478.797 30.7871H481.438" stroke="#1D1D1B" stroke-width="0.75" stroke-miterlimit="10" stroke-linecap="round" stroke-linejoin="round"/>
<path d="M508.085 30.7871H510.726" stroke="#1D1D1B" stroke-width="0.75" stroke-miterlimit="10" stroke-linecap="round" stroke-linejoin="round"/>
<path d="M494.761 32.0513C495.46 32.0513 496.026 31.4852 496.026 30.7869C496.026 30.0886 495.46 29.5225 494.761 29.5225C494.063 29.5225 493.497 30.0886 493.497 30.7869C493.497 31.4852 494.063 32.0513 494.761 32.0513Z" fill="#16C58E" stroke="#1D1D1B" stroke-width="0.75" stroke-miterlimit="10" stroke-linecap="round" stroke-linejoin="round"/>
</g>
<g clip-path="url(#clip5_0_1)">
<path d="M372.761 296.11C380.481 296.11 386.739 294.681 386.739 292.919C386.739 291.156 380.481 289.728 372.761 289.728C365.042 289.728 358.784 291.156 358.784 292.919C358.784 294.681 365.042 296.11 372.761 296.11Z" fill="#1D1D1B"/>
<path d="M402.196 239.761C402.196 223.504 389.018 210.327 372.761 210.327C356.504 210.327 343.327 223.504 343.327 239.761C343.327 250.281 348.849 259.502 357.141 264.706L372.761 292.919L388.382 264.706C396.682 259.502 402.196 250.281 402.196 239.761Z" fill="#F0E704" stroke="#1D1D1B" stroke-width="0.75" stroke-miterlimit="10" stroke-linecap="round" stroke-linejoin="round"/>
<path d="M372.761 264.585C386.457 264.585 397.56 253.483 397.56 239.787C397.56 226.091 386.457 214.989 372.761 214.989C359.066 214.989 347.963 226.091 347.963 239.787C347.963 253.483 359.066 264.585 372.761 264.585Z" fill="white" stroke="#1D1D1B" stroke-width="0.75" stroke-miterlimit="10" stroke-linecap="round" stroke-linejoin="round"/>
<path d="M389.577 242.599V236.965H386.119C385.767 235.288 385.104 233.731 384.193 232.338L386.644 229.886L382.662 225.904L380.21 228.355C378.825 227.452 377.26 226.781 375.583 226.429V222.971H369.949V226.429C368.271 226.781 366.714 227.444 365.321 228.355L362.869 225.904L358.887 229.886L361.338 232.338C360.435 233.723 359.764 235.288 359.412 236.965H355.954V242.599H359.412C359.764 244.277 360.427 245.834 361.338 247.227L358.887 249.678L362.869 253.661L365.321 251.21C366.706 252.113 368.271 252.784 369.949 253.136V256.594H375.583V253.136C377.26 252.784 378.817 252.121 380.21 251.21L382.662 253.661L386.644 249.678L384.193 247.227C385.096 245.842 385.767 244.277 386.119 242.599H389.577ZM372.761 247.193C368.667 247.193 365.347 243.872 365.347 239.778C365.347 235.684 368.667 232.364 372.761 232.364C376.856 232.364 380.176 235.684 380.176 239.778C380.176 243.881 376.856 247.193 372.761 247.193Z" fill="#F0E704" stroke="#1D1D1B" stroke-width="0.75" stroke-miterlimit="10" stroke-linecap="round" stroke-linejoin="round"/>
</g>
<g clip-path="url(#clip6_0_1)">
<path d="M372.761 296.11C380.481 296.11 386.739 294.681 386.739 292.919C386.739 291.156 380.481 289.728 372.761 289.728C365.042 289.728 358.784 291.156 358.784 292.919C358.784 294.681 365.042 296.11 372.761 296.11Z" fill="#1D1D1B"/>
<path d="M402.196 239.761C402.196 223.504 389.018 210.327 372.761 210.327C356.504 210.327 343.327 223.504 343.327 239.761C343.327 250.281 348.849 259.502 357.141 264.706L372.761 292.919L388.382 264.706C396.682 259.502 402.196 250.281 402.196 239.761Z" fill="#F0E704" stroke="#1D1D1B" stroke-width="0.75" stroke-miterlimit="10" stroke-linecap="round" stroke-linejoin="round"/>
<path d="M372.761 264.585C386.457 264.585 397.56 253.483 397.56 239.787C397.56 226.091 386.457 214.989 372.761 214.989C359.066 214.989 347.963 226.091 347.963 239.787C347.963 253.483 359.066 264.585 372.761 264.585Z" fill="white" stroke="#1D1D1B" stroke-width="0.75" stroke-miterlimit="10" stroke-linecap="round" stroke-linejoin="round"/>
<path d="M389.577 242.599V236.965H386.119C385.767 235.288 385.104 233.731 384.193 232.338L386.644 229.886L382.662 225.904L380.21 228.355C378.825 227.452 377.26 226.781 375.583 226.429V222.971H369.949V226.429C368.271 226.781 366.714 227.444 365.321 228.355L362.869 225.904L358.887 229.886L361.338 232.338C360.435 233.723 359.764 235.288 359.412 236.965H355.954V242.599H359.412C359.764 244.277 360.427 245.834 361.338 247.227L358.887 249.678L362.869 253.661L365.321 251.21C366.706 252.113 368.271 252.784 369.949 253.136V256.594H375.583V253.136C377.26 252.784 378.817 252.121 380.21 251.21L382.662 253.661L386.644 249.678L384.193 247.227C385.096 245.842 385.767 244.277 386.119 242.599H389.577ZM372.761 247.193C368.667 247.193 365.347 243.872 365.347 239.778C365.347 235.684 368.667 232.364 372.761 232.364C376.856 232.364 380.176 235.684 380.176 239.778C380.176 243.881 376.856 247.193 372.761 247.193Z" fill="#F0E704" stroke="#1D1D1B" stroke-width="0.75" stroke-miterlimit="10" stroke-linecap="round" stroke-linejoin="round"/>
</g>
<g clip-path="url(#clip7_0_1)">
<path d="M253.761 86.1099C261.481 86.1099 267.739 84.6811 267.739 82.9187C267.739 81.1563 261.481 79.7275 253.761 79.7275C246.042 79.7275 239.784 81.1563 239.784 82.9187C239.784 84.6811 246.042 86.1099 253.761 86.1099Z" fill="#1D1D1B"/>
<path d="M283.196 29.7611C283.196 13.5042 270.018 0.32666 253.761 0.32666C237.504 0.32666 224.327 13.5042 224.327 29.7611C224.327 40.2808 229.849 49.5017 238.141 54.7056L253.761 82.9186L269.382 54.7056C277.682 49.5017 283.196 40.2808 283.196 29.7611Z" fill="#16C58E" stroke="#1D1D1B" stroke-width="0.75" stroke-miterlimit="10" stroke-linecap="round" stroke-linejoin="round"/>
<path d="M253.761 54.5852C267.457 54.5852 278.56 43.4827 278.56 29.787C278.56 16.0913 267.457 4.98877 253.761 4.98877C240.066 4.98877 228.963 16.0913 228.963 29.787C228.963 43.4827 240.066 54.5852 253.761 54.5852Z" fill="white" stroke="#1D1D1B" stroke-width="0.75" stroke-miterlimit="10" stroke-linecap="round" stroke-linejoin="round"/>
<path d="M263.111 27.9288C263.111 22.5356 258.742 18.166 253.349 18.166C247.955 18.166 243.594 22.5356 243.594 27.9288C243.594 32.0489 246.149 35.5669 249.762 36.9948V40.7365H256.953V36.9948C260.557 35.5669 263.111 32.0489 263.111 27.9288Z" fill="#16C58E" stroke="#1D1D1B" stroke-width="0.75" stroke-miterlimit="10" stroke-linecap="round" stroke-linejoin="round"/>
<path d="M258.553 40.7363H248.153V47.1875H258.553V40.7363Z" fill="#16C58E" stroke="#1D1D1B" stroke-width="0.75" stroke-miterlimit="10" stroke-linecap="round" stroke-linejoin="round"/>
<path d="M248.153 42.9556H258.553" stroke="#1D1D1B" stroke-width="0.75" stroke-miterlimit="10" stroke-linecap="round" stroke-linejoin="round"/>
<path d="M248.153 45.1665H258.553" stroke="#1D1D1B" stroke-width="0.75" stroke-miterlimit="10" stroke-linecap="round" stroke-linejoin="round"/>
<path d="M254.768 40.2549C254.768 40.2549 254.579 32.0748 257.039 29.6578C259.499 27.2493 257.925 34.2252 254.226 31.5673C250.527 28.9008 255.499 27.4902 254.863 29.5287C254.226 31.5673 252.497 32.4963 250.355 31.7221C248.214 30.948 249.031 28.0063 250.502 29.2707C251.972 30.5351 251.886 40.6591 251.886 40.6591" stroke="#1D1D1B" stroke-width="0.75" stroke-miterlimit="10" stroke-linecap="round" stroke-linejoin="round"/>
<path d="M253.349 15.3448V10.3301" stroke="#1D1D1B" stroke-width="0.75" stroke-miterlimit="10" stroke-linecap="round" stroke-linejoin="round"/>
<path d="M262.156 18.9916L265.7 15.4478" stroke="#1D1D1B" stroke-width="0.75" stroke-miterlimit="10" stroke-linecap="round" stroke-linejoin="round"/>
<path d="M245.366 18.9916L241.823 15.4478" stroke="#1D1D1B" stroke-width="0.75" stroke-miterlimit="10" stroke-linecap="round" stroke-linejoin="round"/>
</g>
<g clip-path="url(#clip8_0_1)">
<path d="M253.761 86.1099C261.481 86.1099 267.739 84.6811 267.739 82.9187C267.739 81.1563 261.481 79.7275 253.761 79.7275C246.042 79.7275 239.784 81.1563 239.784 82.9187C239.784 84.6811 246.042 86.1099 253.761 86.1099Z" fill="#1D1D1B"/>
<path d="M283.196 29.7611C283.196 13.5042 270.018 0.32666 253.761 0.32666C237.504 0.32666 224.327 13.5042 224.327 29.7611C224.327 40.2808 229.849 49.5017 238.141 54.7056L253.761 82.9186L269.382 54.7056C277.682 49.5017 283.196 40.2808 283.196 29.7611Z" fill="#16C58E" stroke="#1D1D1B" stroke-width="0.75" stroke-miterlimit="10" stroke-linecap="round" stroke-linejoin="round"/>
<path d="M253.761 54.5852C267.457 54.5852 278.56 43.4827 278.56 29.787C278.56 16.0913 267.457 4.98877 253.761 4.98877C240.066 4.98877 228.963 16.0913 228.963 29.787C228.963 43.4827 240.066 54.5852 253.761 54.5852Z" fill="white" stroke="#1D1D1B" stroke-width="0.75" stroke-miterlimit="10" stroke-linecap="round" stroke-linejoin="round"/>
<path d="M263.111 27.9288C263.111 22.5356 258.742 18.166 253.349 18.166C247.955 18.166 243.594 22.5356 243.594 27.9288C243.594 32.0489 246.149 35.5669 249.762 36.9948V40.7365H256.953V36.9948C260.557 35.5669 263.111 32.0489 263.111 27.9288Z" fill="#16C58E" stroke="#1D1D1B" stroke-width="0.75" stroke-miterlimit="10" stroke-linecap="round" stroke-linejoin="round"/>
<path d="M258.553 40.7363H248.153V47.1875H258.553V40.7363Z" fill="#16C58E" stroke="#1D1D1B" stroke-width="0.75" stroke-miterlimit="10" stroke-linecap="round" stroke-linejoin="round"/>
<path d="M248.153 42.9556H258.553" stroke="#1D1D1B" stroke-width="0.75" stroke-miterlimit="10" stroke-linecap="round" stroke-linejoin="round"/>
<path d="M248.153 45.1665H258.553" stroke="#1D1D1B" stroke-width="0.75" stroke-miterlimit="10" stroke-linecap="round" stroke-linejoin="round"/>
<path d="M254.768 40.2549C254.768 40.2549 254.579 32.0748 257.039 29.6578C259.499 27.2493 257.925 34.2252 254.226 31.5673C250.527 28.9008 255.499 27.4902 254.863 29.5287C254.226 31.5673 252.497 32.4963 250.355 31.7221C248.214 30.948 249.031 28.0063 250.502 29.2707C251.972 30.5351 251.886 40.6591 251.886 40.6591" stroke="#1D1D1B" stroke-width="0.75" stroke-miterlimit="10" stroke-linecap="round" stroke-linejoin="round"/>
<path d="M253.349 15.3448V10.3301" stroke="#1D1D1B" stroke-width="0.75" stroke-miterlimit="10" stroke-linecap="round" stroke-linejoin="round"/>
<path d="M262.156 18.9916L265.7 15.4478" stroke="#1D1D1B" stroke-width="0.75" stroke-miterlimit="10" stroke-linecap="round" stroke-linejoin="round"/>
<path d="M245.366 18.9916L241.823 15.4478" stroke="#1D1D1B" stroke-width="0.75" stroke-miterlimit="10" stroke-linecap="round" stroke-linejoin="round"/>
</g>
<g clip-path="url(#clip9_0_1)">
<path d="M133.761 295.11C141.481 295.11 147.739 293.681 147.739 291.919C147.739 290.156 141.481 288.728 133.761 288.728C126.042 288.728 119.784 290.156 119.784 291.919C119.784 293.681 126.042 295.11 133.761 295.11Z" fill="#1D1D1B"/>
<path d="M163.196 238.761C163.196 222.504 150.018 209.327 133.761 209.327C117.504 209.327 104.327 222.504 104.327 238.761C104.327 249.281 109.849 258.502 118.141 263.706L133.761 291.919L149.382 263.706C157.682 258.502 163.196 249.281 163.196 238.761Z" fill="#004AB3" stroke="#1D1D1B" stroke-width="0.75" stroke-miterlimit="10" stroke-linecap="round" stroke-linejoin="round"/>
<path d="M133.761 263.585C147.457 263.585 158.56 252.483 158.56 238.787C158.56 225.091 147.457 213.989 133.761 213.989C120.066 213.989 108.963 225.091 108.963 238.787C108.963 252.483 120.066 263.585 133.761 263.585Z" fill="white" stroke="#1D1D1B" stroke-width="0.75" stroke-miterlimit="10" stroke-linecap="round" stroke-linejoin="round"/>
<path d="M122.407 232.629C122.407 228.878 125.452 225.833 129.202 225.833" stroke="#1D1D1B" stroke-width="0.75" stroke-miterlimit="10" stroke-linecap="round" stroke-linejoin="round"/>
<path d="M147.343 254.107L140.161 245.29C139.748 244.782 139.103 244.567 138.501 244.662L136.402 242.082C139.301 239.897 141.184 236.43 141.184 232.534C141.184 225.928 135.809 220.561 129.211 220.561C122.614 220.561 117.238 225.937 117.238 232.534C117.238 239.14 122.614 244.507 129.211 244.507C131.267 244.507 133.211 243.983 134.905 243.062L137.125 245.789C136.91 246.365 136.987 247.027 137.4 247.544L144.582 256.36C144.935 256.79 145.451 257.014 145.967 257.014C146.363 257.014 146.758 256.885 147.094 256.61C147.851 255.99 147.962 254.872 147.343 254.107ZM120.162 232.534C120.162 227.554 124.214 223.502 129.194 223.502C134.174 223.502 138.226 227.554 138.226 232.534C138.226 237.514 134.174 241.565 129.194 241.565C124.214 241.565 120.162 237.514 120.162 232.534Z" fill="#004AB3" stroke="#1D1D1B" stroke-width="0.75" stroke-miterlimit="10" stroke-linecap="round" stroke-linejoin="round"/>
<path d="M137.116 245.789L138.492 244.662" stroke="#1D1D1B" stroke-width="0.75" stroke-miterlimit="10" stroke-linecap="round" stroke-linejoin="round"/>
</g>
<g clip-path="url(#clip10_0_1)">
<path d="M133.761 295.11C141.481 295.11 147.739 293.681 147.739 291.919C147.739 290.156 141.481 288.728 133.761 288.728C126.042 288.728 119.784 290.156 119.784 291.919C119.784 293.681 126.042 295.11 133.761 295.11Z" fill="#1D1D1B"/>
<path d="M163.196 238.761C163.196 222.504 150.018 209.327 133.761 209.327C117.504 209.327 104.327 222.504 104.327 238.761C104.327 249.281 109.849 258.502 118.141 263.706L133.761 291.919L149.382 263.706C157.682 258.502 163.196 249.281 163.196 238.761Z" fill="#004AB3" stroke="#1D1D1B" stroke-width="0.75" stroke-miterlimit="10" stroke-linecap="round" stroke-linejoin="round"/>
<path d="M133.761 263.585C147.457 263.585 158.56 252.483 158.56 238.787C158.56 225.091 147.457 213.989 133.761 213.989C120.066 213.989 108.963 225.091 108.963 238.787C108.963 252.483 120.066 263.585 133.761 263.585Z" fill="white" stroke="#1D1D1B" stroke-width="0.75" stroke-miterlimit="10" stroke-linecap="round" stroke-linejoin="round"/>
<path d="M122.407 232.629C122.407 228.878 125.452 225.833 129.202 225.833" stroke="#1D1D1B" stroke-width="0.75" stroke-miterlimit="10" stroke-linecap="round" stroke-linejoin="round"/>
<path d="M147.343 254.107L140.161 245.29C139.748 244.782 139.103 244.567 138.501 244.662L136.402 242.082C139.301 239.897 141.184 236.43 141.184 232.534C141.184 225.928 135.809 220.561 129.211 220.561C122.614 220.561 117.238 225.937 117.238 232.534C117.238 239.14 122.614 244.507 129.211 244.507C131.267 244.507 133.211 243.983 134.905 243.062L137.125 245.789C136.91 246.365 136.987 247.027 137.4 247.544L144.582 256.36C144.935 256.79 145.451 257.014 145.967 257.014C146.363 257.014 146.758 256.885 147.094 256.61C147.851 255.99 147.962 254.872 147.343 254.107ZM120.162 232.534C120.162 227.554 124.214 223.502 129.194 223.502C134.174 223.502 138.226 227.554 138.226 232.534C138.226 237.514 134.174 241.565 129.194 241.565C124.214 241.565 120.162 237.514 120.162 232.534Z" fill="#004AB3" stroke="#1D1D1B" stroke-width="0.75" stroke-miterlimit="10" stroke-linecap="round" stroke-linejoin="round"/>
<path d="M137.116 245.789L138.492 244.662" stroke="#1D1D1B" stroke-width="0.75" stroke-miterlimit="10" stroke-linecap="round" stroke-linejoin="round"/>
</g>
<path d="M134 296L147.5 294.5L158.5 291L160 303H134V296Z" fill="#3C3C3B"/>
<path d="M134 296L147.5 294.5L158.5 291L160 303H134V296Z" fill="#3C3C3B"/>
<defs>
<clipPath id="clip0_0_1">
<rect width="750" height="244.99" fill="white" transform="translate(0 69)"/>
</clipPath>
<clipPath id="clip1_0_1">
<rect width="59.5227" height="86.11" fill="white" transform="translate(587 209)"/>
</clipPath>
<clipPath id="clip2_0_1">
<rect width="59.5227" height="86.11" fill="white" transform="translate(587 209)"/>
</clipPath>
<clipPath id="clip3_0_1">
<rect width="59.5227" height="86.11" fill="white" transform="translate(465 1)"/>
</clipPath>
<clipPath id="clip4_0_1">
<rect width="59.5227" height="86.11" fill="white" transform="translate(465 1)"/>
</clipPath>
<clipPath id="clip5_0_1">
<rect width="59.5227" height="86.11" fill="white" transform="translate(343 210)"/>
</clipPath>
<clipPath id="clip6_0_1">
<rect width="59.5227" height="86.11" fill="white" transform="translate(343 210)"/>
</clipPath>
<clipPath id="clip7_0_1">
<rect width="59.5227" height="86.11" fill="white" transform="translate(224)"/>
</clipPath>
<clipPath id="clip8_0_1">
<rect width="59.5227" height="86.11" fill="white" transform="translate(224)"/>
</clipPath>
<clipPath id="clip9_0_1">
<rect width="59.5227" height="86.11" fill="white" transform="translate(104 209)"/>
</clipPath>
<clipPath id="clip10_0_1">
<rect width="59.5227" height="86.11" fill="white" transform="translate(104 209)"/>
</clipPath>
</defs>
</svg>
