<svg width="750" height="314" viewBox="0 0 750 314" fill="none" xmlns="http://www.w3.org/2000/svg">
<g clip-path="url(#clip0_0_1)">
<path d="M615.33 313.99C573.33 313.99 539.16 279.82 539.16 237.82V145.17C539.16 120.27 518.9 100 493.99 100C469.09 100 448.82 120.26 448.82 145.17V237.82C448.82 279.82 414.65 313.99 372.65 313.99C330.65 313.99 296.48 279.82 296.48 237.82V145.17C296.48 120.27 276.22 100 251.31 100C226.41 100 206.14 120.26 206.14 145.17V237.82C206.14 258.27 198.15 277.47 183.63 291.88C169.25 306.15 150.22 313.99 129.98 313.99C129.79 313.99 129.59 313.99 129.4 313.99C87.72 313.68 53.81 279.17 53.81 237.06V191.32C53.81 188.09 51.18 185.47 47.96 185.47H0V154.47H47.98C68.3 154.47 84.83 171 84.83 191.32V237.06C84.83 262.2 104.94 282.8 129.65 282.99C141.83 283.09 153.21 278.42 161.81 269.88C170.42 261.34 175.16 249.95 175.16 237.82V145.17C175.16 103.17 209.33 69 251.33 69C293.33 69 327.5 103.17 327.5 145.17V237.82C327.5 262.72 347.76 282.99 372.67 282.99C397.57 282.99 417.84 262.73 417.84 237.82V145.17C417.83 103.17 452 69 493.99 69C535.99 69 570.16 103.17 570.16 145.17V237.82C570.16 262.72 590.42 282.99 615.33 282.99C640.24 282.99 660.5 262.73 660.5 237.82V186.74C660.5 167.97 675.77 152.7 694.54 152.7H750V183.7H694.53C692.85 183.7 691.49 185.06 691.49 186.74V237.82C691.49 279.82 657.32 313.99 615.33 313.99Z" fill="#3C3C3B"/>
<path d="M750 167.2H740V169.2H750V167.2Z" fill="white"/>
<path d="M615.39 299.49C615.37 299.49 615.35 299.49 615.33 299.49C606 301.5 606.046 299.42 600.536 297.84L599.259 297.5C604.589 299.03 601.846 297.23 615.33 297.5C616.24 297.49 617.2 297.48 618.13 297.44L618.22 299.44C617.27 299.46 616.32 299.49 615.39 299.49ZM372.66 299.49C370.73 299.49 368.79 299.4 366.88 299.22L367.06 297.23C373.51 297.83 380.14 297.38 386.43 295.89L386.89 297.84C382.26 298.93 377.47 299.49 372.66 299.49ZM135.67 299.23L135.49 297.24C142 296.65 148.32 295 154.27 292.35L155.08 294.18C148.93 296.91 142.4 298.61 135.67 299.23ZM115.65 297.78C109.11 296.2 102.9 293.55 97.1899 289.9L98.2699 288.21C103.79 291.74 109.8 294.3 116.12 295.84L115.65 297.78ZM637.85 295.24L637.12 293.38C643.18 291 648.79 287.65 653.79 283.43L655.08 284.96C649.91 289.33 644.11 292.78 637.85 295.24ZM347.47 294.12C341.32 291.37 335.7 287.64 330.74 283.04L332.1 281.57C336.9 286.02 342.35 289.63 348.29 292.29L347.47 294.12ZM405.41 290.08L404.35 288.39C409.87 284.92 414.77 280.6 418.9 275.54L420.45 276.81C416.18 282.03 411.12 286.5 405.41 290.08ZM580.17 288.49C574.63 284.64 569.79 279.94 565.77 274.52L567.38 273.33C571.27 278.58 575.96 283.12 581.32 286.85L580.17 288.49ZM171.83 283.13L170.47 281.66C175.27 277.22 179.29 272.07 182.41 266.35L184.17 267.31C180.95 273.22 176.8 278.54 171.83 283.13ZM82.2599 276.51C78.0199 271.26 74.6799 265.4 72.3099 259.09L74.1799 258.39C76.4699 264.5 79.7099 270.17 83.8099 275.25L82.2599 276.51ZM668.11 269.71L666.4 268.67C669.79 263.08 672.21 257.01 673.61 250.64L675.56 251.07C674.12 257.66 671.61 263.93 668.11 269.71ZM318.43 267.2C315.21 261.27 313 254.89 311.87 248.24L313.84 247.9C314.93 254.33 317.07 260.51 320.19 266.25L318.43 267.2ZM430.44 259.4L428.57 258.7C430.85 252.6 432.1 246.19 432.3 239.64L434.3 239.7C434.1 246.47 432.8 253.1 430.44 259.4ZM556.59 256.67C554.64 250.6 553.66 244.26 553.66 237.82V236.83H555.66V237.82C555.66 244.05 556.62 250.18 558.5 256.06L556.59 256.67ZM190.77 248.35L188.8 248.01C189.37 244.67 189.67 241.24 189.67 237.82V228.4H191.67V237.82C191.67 241.35 191.36 244.89 190.77 248.35ZM68.3799 239.41C68.3499 238.63 68.3399 237.84 68.3399 237.06V219.54H70.3399V237.05C70.3399 237.81 70.3499 238.57 70.3799 239.33L68.3799 239.41ZM676.99 231.14H674.99V211.3H676.99V231.14ZM313 228.28H311V208.45H313V228.28ZM434.33 219.84H432.33V200.01H434.33V219.84ZM555.66 217H553.66V197.17H555.66V217ZM191.67 208.57H189.67V188.74H191.67V208.57ZM70.3299 199.71H68.3299V191.32C68.3299 187.65 67.3399 184.06 65.4799 180.93L67.1999 179.91C69.2499 183.35 70.3299 187.3 70.3299 191.33V199.71ZM676.99 191.47H674.99V186.74C674.99 181.31 677.17 176.26 681.12 172.53L682.49 173.98C678.94 177.33 676.99 181.86 676.99 186.74V191.47ZM313 188.62H311V168.78H313V188.62ZM434.33 180.17H432.33V160.34H434.33V180.17ZM555.66 177.33H553.66V157.5H555.66V177.33ZM50.1399 171.08C49.4299 171 48.6999 170.97 47.9799 170.97H30.4199V168.97H47.9799C48.7699 168.97 49.5699 169.01 50.3499 169.09L50.1399 171.08ZM720.17 169.2H700.34V167.2H720.17V169.2ZM191.67 168.9H189.67V149.06H191.67V168.9ZM313 148.95H311V145.17C311 139.88 310.31 134.63 308.94 129.57L310.87 129.05C312.28 134.28 313 139.7 313 145.17V148.95ZM434.5 140.59L432.51 140.44C433.02 133.7 434.62 127.14 437.27 120.95L439.11 121.74C436.55 127.72 435 134.06 434.5 140.59ZM553.21 137.81C552.41 131.32 550.57 125.06 547.72 119.19L549.52 118.32C552.46 124.39 554.37 130.87 555.19 137.57L553.21 137.81ZM193.7 129.67L191.77 129.15C193.51 122.64 196.31 116.5 200.07 110.88L201.73 111.99C198.08 117.43 195.38 123.38 193.7 129.67ZM300.87 111.9C297.23 106.49 292.75 101.73 287.56 97.76L288.78 96.17C294.14 100.27 298.76 105.19 302.53 110.79L300.87 111.9ZM449.54 105.36L448.05 104.03C452.56 99 457.82 94.77 463.68 91.45L464.66 93.19C459 96.4 453.91 100.49 449.54 105.36ZM536.52 103.32C531.94 98.66 526.66 94.81 520.84 91.87L521.74 90.08C527.75 93.12 533.2 97.1 537.94 101.91L536.52 103.32ZM215 97.83L213.78 96.24C219.14 92.12 225.09 88.93 231.47 86.76L232.11 88.65C225.95 90.76 220.19 93.84 215 97.83ZM270.44 88.62C264.3 86.55 257.87 85.49 251.33 85.5L251.28 84.5V83.5C258.09 83.5 264.74 84.59 271.08 86.73L270.44 88.62ZM482.91 86.53L482.54 84.56C489.1 83.33 495.99 83.17 502.6 84.09L502.32 86.07C495.92 85.18 489.26 85.33 482.91 86.53Z" fill="white"/>
<path d="M10 168.97H0V170.97H10V168.97Z" fill="white"/>
<path d="M598 295L608.5 296H619V303H598V295Z" fill="#3C3C3B"/>
<path d="M365 297L389 295.5V302H365V297Z" fill="#3C3C3B"/>
<rect x="251" y="83" width="20" height="7" fill="#3C3C3B"/>
<rect x="482" y="80" width="22" height="7" fill="#3C3C3B"/>
</g>
<g clip-path="url(#clip1_0_1)">
<path d="M616.761 295.11C609.037 295.11 602.784 293.682 602.784 291.919C602.784 290.156 609.046 288.728 616.761 288.728C624.486 288.728 630.739 290.156 630.739 291.919C630.739 293.682 624.486 295.11 616.761 295.11Z" fill="#1D1D1B"/>
<path d="M616.761 209.327C600.504 209.327 587.327 222.504 587.327 238.761C587.327 249.281 592.849 258.502 601.141 263.706L616.761 291.919L632.382 263.706C640.682 258.502 646.196 249.272 646.196 238.761" fill="#004AB3"/>
<path d="M616.761 209.327C600.504 209.327 587.327 222.504 587.327 238.761C587.327 249.281 592.849 258.502 601.141 263.706L616.761 291.919L632.382 263.706C640.682 258.502 646.196 249.272 646.196 238.761" stroke="#1D1D1B" stroke-width="0.75" stroke-miterlimit="10" stroke-linecap="round" stroke-linejoin="round"/>
<path d="M646.196 238.761C646.196 222.504 633.018 209.327 616.761 209.327Z" fill="#004AB3"/>
<path d="M646.196 238.761C646.196 222.504 633.018 209.327 616.761 209.327" stroke="#1D1D1B" stroke-width="0.75" stroke-miterlimit="10" stroke-linecap="round" stroke-linejoin="round"/>
<path d="M616.761 213.98C630.455 213.98 641.56 225.085 641.56 238.778C641.56 252.481 630.455 263.577 616.761 263.577C603.059 263.577 591.963 252.472 591.963 238.778C591.963 225.085 603.059 213.98 616.761 213.98Z" fill="white" stroke="#1D1D1B" stroke-width="0.75" stroke-miterlimit="10" stroke-linecap="round" stroke-linejoin="round"/>
<path d="M616.761 252.98C624.6 252.98 630.954 246.626 630.954 238.787C630.954 230.949 624.6 224.595 616.761 224.595C608.923 224.595 602.569 230.949 602.569 238.787C602.569 246.626 608.923 252.98 616.761 252.98Z" fill="#004AB3" stroke="#1D1D1B" stroke-width="0.75" stroke-miterlimit="10" stroke-linecap="round" stroke-linejoin="round"/>
<path d="M616.761 229.842V219.339" stroke="#1D1D1B" stroke-width="0.75" stroke-miterlimit="10" stroke-linecap="round" stroke-linejoin="round"/>
<path d="M616.761 258.235V247.733" stroke="#1D1D1B" stroke-width="0.75" stroke-miterlimit="10" stroke-linecap="round" stroke-linejoin="round"/>
<path d="M625.707 238.787H636.209" stroke="#1D1D1B" stroke-width="0.75" stroke-miterlimit="10" stroke-linecap="round" stroke-linejoin="round"/>
<path d="M597.313 238.787H607.816" stroke="#1D1D1B" stroke-width="0.75" stroke-miterlimit="10" stroke-linecap="round" stroke-linejoin="round"/>
<path d="M616.761 240.645C617.787 240.645 618.619 239.813 618.619 238.787C618.619 237.761 617.787 236.929 616.761 236.929C615.735 236.929 614.903 237.761 614.903 238.787C614.903 239.813 615.735 240.645 616.761 240.645Z" fill="#004AB3" stroke="#1D1D1B" stroke-width="0.75" stroke-miterlimit="10" stroke-linecap="round" stroke-linejoin="round"/>
</g>
<g clip-path="url(#clip2_0_1)">
<path d="M494.761 87.1101C502.481 87.1101 508.739 85.6814 508.739 83.919C508.739 82.1565 502.481 80.7278 494.761 80.7278C487.042 80.7278 480.784 82.1565 480.784 83.919C480.784 85.6814 487.042 87.1101 494.761 87.1101Z" fill="#1D1D1B"/>
<path d="M524.196 30.7614C524.196 14.5045 511.018 1.3269 494.761 1.3269C478.504 1.3269 465.327 14.5045 465.327 30.7614C465.327 41.2811 470.849 50.5019 479.141 55.7058L494.761 83.9189L510.382 55.7058C518.682 50.5019 524.196 41.2811 524.196 30.7614Z" fill="#16C58E" stroke="#1D1D1B" stroke-width="0.75" stroke-miterlimit="10" stroke-linecap="round" stroke-linejoin="round"/>
<path d="M494.761 55.5855C508.457 55.5855 519.56 44.4829 519.56 30.7873C519.56 17.0916 508.457 5.98901 494.761 5.98901C481.066 5.98901 469.963 17.0916 469.963 30.7873C469.963 44.4829 481.066 55.5855 494.761 55.5855Z" fill="white" stroke="#1D1D1B" stroke-width="0.75" stroke-miterlimit="10" stroke-linecap="round" stroke-linejoin="round"/>
<path d="M494.761 50.2353C505.502 50.2353 514.209 41.5281 514.209 30.7872C514.209 20.0463 505.502 11.3391 494.761 11.3391C484.02 11.3391 475.313 20.0463 475.313 30.7872C475.313 41.5281 484.02 50.2353 494.761 50.2353Z" fill="#16C58E" stroke="#1D1D1B" stroke-width="0.75" stroke-miterlimit="10" stroke-linecap="round" stroke-linejoin="round"/>
<path d="M494.761 46.7517C503.578 46.7517 510.726 39.6041 510.726 30.7872C510.726 21.9703 503.578 14.8228 494.761 14.8228C485.944 14.8228 478.797 21.9703 478.797 30.7872C478.797 39.6041 485.944 46.7517 494.761 46.7517Z" fill="white" stroke="#1D1D1B" stroke-width="0.75" stroke-miterlimit="10" stroke-linecap="round" stroke-linejoin="round"/>
<path d="M494.323 31.0711L500.223 23.3813" stroke="#1D1D1B" stroke-width="0.75" stroke-miterlimit="10" stroke-linecap="round" stroke-linejoin="round"/>
<path d="M494.323 31.071L503.595 38.1845" stroke="#1D1D1B" stroke-width="0.75" stroke-miterlimit="10" stroke-linecap="round" stroke-linejoin="round"/>
<path d="M494.761 46.7516V44.1023" stroke="#1D1D1B" stroke-width="0.75" stroke-miterlimit="10" stroke-linecap="round" stroke-linejoin="round"/>
<path d="M494.761 17.4634V14.8228" stroke="#1D1D1B" stroke-width="0.75" stroke-miterlimit="10" stroke-linecap="round" stroke-linejoin="round"/>
<path d="M478.797 30.7871H481.438" stroke="#1D1D1B" stroke-width="0.75" stroke-miterlimit="10" stroke-linecap="round" stroke-linejoin="round"/>
<path d="M508.085 30.7871H510.726" stroke="#1D1D1B" stroke-width="0.75" stroke-miterlimit="10" stroke-linecap="round" stroke-linejoin="round"/>
<path d="M494.761 32.0516C495.46 32.0516 496.026 31.4855 496.026 30.7871C496.026 30.0888 495.46 29.5227 494.761 29.5227C494.063 29.5227 493.497 30.0888 493.497 30.7871C493.497 31.4855 494.063 32.0516 494.761 32.0516Z" fill="#16C58E" stroke="#1D1D1B" stroke-width="0.75" stroke-miterlimit="10" stroke-linecap="round" stroke-linejoin="round"/>
</g>
<g clip-path="url(#clip3_0_1)">
<path d="M372.761 296.11C380.481 296.11 386.739 294.681 386.739 292.919C386.739 291.157 380.481 289.728 372.761 289.728C365.042 289.728 358.784 291.157 358.784 292.919C358.784 294.681 365.042 296.11 372.761 296.11Z" fill="#1D1D1B"/>
<path d="M402.196 239.761C402.196 223.504 389.018 210.327 372.761 210.327C356.504 210.327 343.327 223.504 343.327 239.761C343.327 250.281 348.849 259.502 357.141 264.706L372.761 292.919L388.382 264.706C396.682 259.502 402.196 250.281 402.196 239.761Z" fill="#F0E704" stroke="#1D1D1B" stroke-width="0.75" stroke-miterlimit="10" stroke-linecap="round" stroke-linejoin="round"/>
<path d="M372.761 264.585C386.457 264.585 397.56 253.483 397.56 239.787C397.56 226.092 386.457 214.989 372.761 214.989C359.066 214.989 347.963 226.092 347.963 239.787C347.963 253.483 359.066 264.585 372.761 264.585Z" fill="white" stroke="#1D1D1B" stroke-width="0.75" stroke-miterlimit="10" stroke-linecap="round" stroke-linejoin="round"/>
<path d="M389.577 242.6V236.966H386.119C385.767 235.289 385.104 233.732 384.193 232.338L386.644 229.887L382.662 225.904L380.21 228.356C378.825 227.453 377.26 226.782 375.583 226.429V222.971H369.949V226.429C368.271 226.782 366.714 227.444 365.321 228.356L362.869 225.904L358.887 229.887L361.338 232.338C360.435 233.723 359.764 235.289 359.412 236.966H355.954V242.6H359.412C359.764 244.277 360.427 245.834 361.338 247.228L358.887 249.679L362.869 253.661L365.321 251.21C366.706 252.113 368.271 252.784 369.949 253.137V256.595H375.583V253.137C377.26 252.784 378.817 252.122 380.21 251.21L382.662 253.661L386.644 249.679L384.193 247.228C385.096 245.843 385.767 244.277 386.119 242.6H389.577ZM372.761 247.193C368.667 247.193 365.347 243.873 365.347 239.779C365.347 235.684 368.667 232.364 372.761 232.364C376.856 232.364 380.176 235.684 380.176 239.779C380.176 243.882 376.856 247.193 372.761 247.193Z" fill="#F0E704" stroke="#1D1D1B" stroke-width="0.75" stroke-miterlimit="10" stroke-linecap="round" stroke-linejoin="round"/>
</g>
<g clip-path="url(#clip4_0_1)">
<path d="M253.761 86.1101C261.481 86.1101 267.739 84.6814 267.739 82.919C267.739 81.1565 261.481 79.7278 253.761 79.7278C246.042 79.7278 239.784 81.1565 239.784 82.919C239.784 84.6814 246.042 86.1101 253.761 86.1101Z" fill="#1D1D1B"/>
<path d="M283.196 29.7614C283.196 13.5045 270.018 0.326904 253.761 0.326904C237.504 0.326904 224.327 13.5045 224.327 29.7614C224.327 40.2811 229.849 49.5019 238.141 54.7058L253.761 82.9189L269.382 54.7058C277.682 49.5019 283.196 40.2811 283.196 29.7614Z" fill="#16C58E" stroke="#1D1D1B" stroke-width="0.75" stroke-miterlimit="10" stroke-linecap="round" stroke-linejoin="round"/>
<path d="M253.761 54.5855C267.457 54.5855 278.56 43.4829 278.56 29.7873C278.56 16.0916 267.457 4.98901 253.761 4.98901C240.066 4.98901 228.963 16.0916 228.963 29.7873C228.963 43.4829 240.066 54.5855 253.761 54.5855Z" fill="white" stroke="#1D1D1B" stroke-width="0.75" stroke-miterlimit="10" stroke-linecap="round" stroke-linejoin="round"/>
<path d="M263.111 27.9293C263.111 22.5361 258.742 18.1665 253.349 18.1665C247.955 18.1665 243.594 22.5361 243.594 27.9293C243.594 32.0494 246.149 35.5674 249.762 36.9953V40.7369H256.953V36.9953C260.557 35.5674 263.111 32.0494 263.111 27.9293Z" fill="#16C58E" stroke="#1D1D1B" stroke-width="0.75" stroke-miterlimit="10" stroke-linecap="round" stroke-linejoin="round"/>
<path d="M258.553 40.7371H248.153V47.1882H258.553V40.7371Z" fill="#16C58E" stroke="#1D1D1B" stroke-width="0.75" stroke-miterlimit="10" stroke-linecap="round" stroke-linejoin="round"/>
<path d="M248.153 42.9563H258.553" stroke="#1D1D1B" stroke-width="0.75" stroke-miterlimit="10" stroke-linecap="round" stroke-linejoin="round"/>
<path d="M248.153 45.1667H258.553" stroke="#1D1D1B" stroke-width="0.75" stroke-miterlimit="10" stroke-linecap="round" stroke-linejoin="round"/>
<path d="M254.768 40.2553C254.768 40.2553 254.579 32.0753 257.039 29.6582C259.499 27.2498 257.925 34.2257 254.226 31.5678C250.527 28.9013 255.499 27.4907 254.863 29.5292C254.226 31.5678 252.497 32.4968 250.355 31.7226C248.214 30.9485 249.031 28.0068 250.502 29.2712C251.972 30.5356 251.886 40.6596 251.886 40.6596" stroke="#1D1D1B" stroke-width="0.75" stroke-miterlimit="10" stroke-linecap="round" stroke-linejoin="round"/>
<path d="M253.349 15.3453V10.3306" stroke="#1D1D1B" stroke-width="0.75" stroke-miterlimit="10" stroke-linecap="round" stroke-linejoin="round"/>
<path d="M262.156 18.9923L265.7 15.4485" stroke="#1D1D1B" stroke-width="0.75" stroke-miterlimit="10" stroke-linecap="round" stroke-linejoin="round"/>
<path d="M245.366 18.9923L241.823 15.4485" stroke="#1D1D1B" stroke-width="0.75" stroke-miterlimit="10" stroke-linecap="round" stroke-linejoin="round"/>
</g>
<g clip-path="url(#clip5_0_1)">
<path d="M133.761 295.11C141.481 295.11 147.739 293.681 147.739 291.919C147.739 290.157 141.481 288.728 133.761 288.728C126.042 288.728 119.784 290.157 119.784 291.919C119.784 293.681 126.042 295.11 133.761 295.11Z" fill="#1D1D1B"/>
<path d="M163.196 238.761C163.196 222.504 150.018 209.327 133.761 209.327C117.504 209.327 104.327 222.504 104.327 238.761C104.327 249.281 109.849 258.502 118.141 263.706L133.761 291.919L149.382 263.706C157.682 258.502 163.196 249.281 163.196 238.761Z" fill="#004AB3" stroke="#1D1D1B" stroke-width="0.75" stroke-miterlimit="10" stroke-linecap="round" stroke-linejoin="round"/>
<path d="M133.761 263.585C147.457 263.585 158.56 252.483 158.56 238.787C158.56 225.092 147.457 213.989 133.761 213.989C120.066 213.989 108.963 225.092 108.963 238.787C108.963 252.483 120.066 263.585 133.761 263.585Z" fill="white" stroke="#1D1D1B" stroke-width="0.75" stroke-miterlimit="10" stroke-linecap="round" stroke-linejoin="round"/>
<path d="M122.407 232.628C122.407 228.878 125.452 225.833 129.202 225.833" stroke="#1D1D1B" stroke-width="0.75" stroke-miterlimit="10" stroke-linecap="round" stroke-linejoin="round"/>
<path d="M147.343 254.107L140.161 245.29C139.748 244.782 139.103 244.567 138.501 244.662L136.402 242.082C139.301 239.897 141.184 236.43 141.184 232.534C141.184 225.928 135.809 220.561 129.211 220.561C122.614 220.561 117.238 225.937 117.238 232.534C117.238 239.14 122.614 244.507 129.211 244.507C131.267 244.507 133.211 243.983 134.905 243.062L137.125 245.789C136.91 246.365 136.987 247.027 137.4 247.544L144.582 256.36C144.935 256.79 145.451 257.014 145.967 257.014C146.363 257.014 146.758 256.885 147.094 256.61C147.851 255.99 147.962 254.872 147.343 254.107ZM120.162 232.534C120.162 227.554 124.214 223.502 129.194 223.502C134.174 223.502 138.226 227.554 138.226 232.534C138.226 237.514 134.174 241.565 129.194 241.565C124.214 241.565 120.162 237.514 120.162 232.534Z" fill="#004AB3" stroke="#1D1D1B" stroke-width="0.75" stroke-miterlimit="10" stroke-linecap="round" stroke-linejoin="round"/>
<path d="M137.116 245.789L138.492 244.662" stroke="#1D1D1B" stroke-width="0.75" stroke-miterlimit="10" stroke-linecap="round" stroke-linejoin="round"/>
</g>
<path d="M134 296L147.5 294.5L158.5 291L160 303H134V296Z" fill="#3C3C3B"/>
<defs>
<clipPath id="clip0_0_1">
<rect width="750" height="244.99" fill="white" transform="translate(0 69)"/>
</clipPath>
<clipPath id="clip1_0_1">
<rect width="59.5227" height="86.11" fill="white" transform="translate(587 209)"/>
</clipPath>
<clipPath id="clip2_0_1">
<rect width="59.5227" height="86.11" fill="white" transform="translate(465 1)"/>
</clipPath>
<clipPath id="clip3_0_1">
<rect width="59.5227" height="86.11" fill="white" transform="translate(343 210)"/>
</clipPath>
<clipPath id="clip4_0_1">
<rect width="59.5227" height="86.11" fill="white" transform="translate(224)"/>
</clipPath>
<clipPath id="clip5_0_1">
<rect width="59.5227" height="86.11" fill="white" transform="translate(104 209)"/>
</clipPath>
</defs>
</svg>
