<svg width="1728" height="266" viewBox="0 0 1728 266" fill="none" xmlns="http://www.w3.org/2000/svg">
<path d="M27.35 262C19.65 262 13.2333 260.25 8.1 256.75C3.2 253.25 0.750001 249.4 0.750001 245.2V111.85C0.750001 106.95 3.2 102.983 8.1 99.95C13.2333 96.9167 19.65 95.4 27.35 95.4C34.1167 95.4 39.8333 96.9167 44.5 99.95C49.1667 102.983 51.5 106.95 51.5 111.85V124.8C53.8333 119.667 57.1 114.767 61.3 110.1C65.7333 105.2 70.6333 101.233 76 98.2C81.6 94.9333 87.3167 93.3 93.15 93.3H103.3C108.433 93.3 112.867 95.6333 116.6 100.3C120.567 104.967 122.55 110.45 122.55 116.75C122.55 123.283 120.567 128.883 116.6 133.55C112.867 138.217 108.433 140.55 103.3 140.55H93.15C86.85 140.55 80.7833 142.767 74.95 147.2C69.1167 151.4 64.3333 157.35 60.6 165.05C56.8667 172.75 55 181.967 55 192.7V245.2C55 249.4 52.3167 253.25 46.95 256.75C41.5833 260.25 35.05 262 27.35 262ZM218.01 265.5C200.743 265.5 185.46 262.467 172.16 256.4C158.86 250.1 148.36 241.35 140.66 230.15C133.193 218.95 129.46 206 129.46 191.3V165.75C129.46 152.683 133.076 140.667 140.31 129.7C147.543 118.733 157.226 109.983 169.36 103.45C181.493 96.6833 195.026 93.3 209.96 93.3C223.493 93.3 235.86 96.1 247.06 101.7C258.493 107.3 267.71 115.117 274.71 125.15C281.71 134.95 285.21 146.5 285.21 159.8C285.21 170.3 283.46 177.883 279.96 182.55C276.693 186.983 272.376 189.783 267.01 190.95C261.876 191.883 256.626 192.35 251.26 192.35H183.71V194.45C183.71 203.083 186.976 210.083 193.51 215.45C200.043 220.583 208.676 223.15 219.41 223.15C226.643 223.15 232.826 222.1 237.96 220C243.093 217.667 247.643 215.45 251.61 213.35C255.576 211.25 259.426 210.2 263.16 210.2C267.36 210.2 270.976 211.6 274.01 214.4C277.043 217.2 279.26 220.467 280.66 224.2C282.293 227.933 283.11 231.2 283.11 234C283.11 238.433 280.426 243.1 275.06 248C269.693 252.9 262.11 257.1 252.31 260.6C242.743 263.867 231.31 265.5 218.01 265.5ZM183.71 161.9H227.11C229.676 161.9 231.543 161.317 232.71 160.15C233.876 158.983 234.46 156.767 234.46 153.5C234.46 148.833 233.176 144.983 230.61 141.95C228.276 138.683 225.126 136.35 221.16 134.95C217.426 133.317 213.343 132.5 208.91 132.5C204.71 132.5 200.626 133.317 196.66 134.95C192.926 136.35 189.776 138.683 187.21 141.95C184.876 144.983 183.71 148.833 183.71 153.5V161.9ZM336.343 262C328.876 262 322.576 260.483 317.443 257.45C312.309 254.417 309.743 250.45 309.743 245.55V70.55C309.743 57.0167 312.543 45 318.143 34.5C323.743 23.7667 331.209 15.3667 340.543 9.29998C349.876 3.23332 360.143 0.199991 371.343 0.199991H396.543C403.309 0.199991 408.326 2.64999 411.593 7.54998C415.093 12.2167 416.843 17.35 416.843 22.95C416.843 28.7833 415.093 34.0333 411.593 38.7C408.326 43.3667 403.309 45.7 396.543 45.7H383.243C379.509 45.7 376.126 46.4 373.093 47.8C370.293 49.2 368.076 51.3 366.443 54.1C364.809 56.6667 363.993 60.1667 363.993 64.6V95.4H403.543C407.976 95.4 411.243 97.5 413.343 101.7C415.676 105.667 416.843 109.983 416.843 114.65C416.843 119.55 415.676 123.983 413.343 127.95C411.243 131.917 407.976 133.9 403.543 133.9H363.993V245.55C363.993 250.45 361.193 254.417 355.593 257.45C350.226 260.483 343.809 262 336.343 262ZM468.473 265.5C456.34 265.5 445.84 261.767 436.973 254.3C428.106 246.6 423.673 234.817 423.673 218.95C423.673 205.183 427.173 194.45 434.173 186.75C441.173 179.05 450.74 173.683 462.873 170.65C475.24 167.617 489.473 166.1 505.573 166.1H518.173V162.6C518.173 158.633 517.356 154.667 515.723 150.7C514.09 146.733 511.406 143.467 507.673 140.9C503.94 138.1 498.69 136.7 491.923 136.7C482.356 136.7 475.24 137.633 470.573 139.5C465.906 141.367 462.29 143.35 459.723 145.45C457.156 147.317 454.24 148.25 450.973 148.25C445.14 148.25 440.59 145.333 437.323 139.5C434.29 133.667 432.773 127.6 432.773 121.3C432.773 115.7 435.923 110.8 442.223 106.6C448.756 102.4 456.573 99.1333 465.673 96.8C475.006 94.4667 483.99 93.3 492.623 93.3C511.756 93.3 527.156 96.5667 538.823 103.1C550.49 109.633 559.006 118.15 564.373 128.65C569.74 138.917 572.423 150 572.423 161.9V245.2C572.423 249.867 569.856 253.833 564.723 257.1C559.823 260.367 553.523 262 545.823 262C539.056 262 533.34 260.367 528.673 257.1C524.006 253.833 521.673 249.867 521.673 245.2V237.5C515.373 244.733 508.023 251.267 499.623 257.1C491.223 262.7 480.84 265.5 468.473 265.5ZM491.923 225.95C495.656 225.95 499.506 224.55 503.473 221.75C507.44 218.717 510.823 214.75 513.623 209.85C516.656 204.95 518.173 199.583 518.173 193.75V192.35H516.773C510.24 192.35 503.94 192.817 497.873 193.75C492.04 194.45 487.256 196.2 483.523 199C480.023 201.567 478.273 205.65 478.273 211.25C478.273 216.383 479.556 220.117 482.123 222.45C484.69 224.783 487.956 225.95 491.923 225.95ZM676.154 265.5C657.721 265.5 642.554 262.233 630.654 255.7C618.988 249.167 610.354 240.3 604.754 229.1C599.388 217.9 596.704 205.3 596.704 191.3V167.5C596.704 153.5 599.388 140.9 604.754 129.7C610.354 118.5 618.988 109.633 630.654 103.1C642.321 96.5667 657.254 93.3 675.454 93.3C686.888 93.3 697.038 94.7 705.904 97.5C714.771 100.067 721.771 103.567 726.904 108C732.038 112.433 734.604 117.217 734.604 122.35C734.604 125.617 733.671 129.35 731.804 133.55C730.171 137.75 727.721 141.367 724.454 144.4C721.421 147.433 717.804 148.95 713.604 148.95C710.804 148.95 708.004 148.25 705.204 146.85C702.638 145.45 699.371 144.05 695.404 142.65C691.438 141.25 686.304 140.55 680.004 140.55C669.504 140.55 662.038 142.883 657.604 147.55C653.171 152.217 650.954 158.867 650.954 167.5V191.3C650.954 199.933 653.171 206.583 657.604 211.25C662.038 215.917 669.621 218.25 680.354 218.25C686.654 218.25 691.671 217.433 695.404 215.8C699.138 214.167 702.288 212.65 704.854 211.25C707.654 209.617 710.571 208.8 713.604 208.8C718.504 208.8 722.704 210.2 726.204 213C729.704 215.8 732.271 219.3 733.904 223.5C735.771 227.467 736.704 231.2 736.704 234.7C736.704 239.833 734.021 244.85 728.654 249.75C723.288 254.417 716.054 258.267 706.954 261.3C697.854 264.1 687.588 265.5 676.154 265.5ZM825.388 262C803.222 262 786.188 257.333 774.288 248C762.622 238.433 756.788 223.383 756.788 202.85V39.4C756.788 34.5 759.705 30.5333 765.538 27.5C771.372 24.4667 777.438 22.95 783.738 22.95C790.505 22.95 796.688 24.4667 802.288 27.5C808.122 30.5333 811.038 34.5 811.038 39.4V95.4H850.588C855.022 95.4 858.288 97.5 860.388 101.7C862.722 105.667 863.888 109.983 863.888 114.65C863.888 119.55 862.722 123.983 860.388 127.95C858.288 131.917 855.022 133.9 850.588 133.9H811.038V202.85C811.038 207.983 812.088 211.6 814.188 213.7C816.288 215.567 820.022 216.5 825.388 216.5H840.438C848.372 216.5 854.205 218.95 857.938 223.85C861.672 228.517 863.538 233.65 863.538 239.25C863.538 245.083 861.672 250.333 857.938 255C854.205 259.667 848.372 262 840.438 262H825.388ZM956.42 265.5C942.186 265.5 929.003 262.117 916.87 255.35C904.97 248.35 895.286 239.25 887.82 228.05C880.586 216.617 876.97 204.367 876.97 191.3V166.8C876.97 153.733 880.47 141.6 887.47 130.4C894.703 119.2 904.386 110.217 916.52 103.45C928.653 96.6833 941.953 93.3 956.42 93.3C970.653 93.3 983.836 96.6833 995.97 103.45C1008.1 109.983 1017.79 118.85 1025.02 130.05C1032.49 141.017 1036.22 153.267 1036.22 166.8V191.3C1036.22 204.133 1032.49 216.267 1025.02 227.7C1017.79 238.9 1008.1 248 995.97 255C983.836 262 970.653 265.5 956.42 265.5ZM956.42 218.25C961.086 218.25 965.286 216.967 969.02 214.4C972.986 211.833 976.136 208.567 978.47 204.6C980.803 200.4 981.97 195.967 981.97 191.3V166.8C981.97 162.367 980.803 158.167 978.47 154.2C976.136 150.233 972.986 146.967 969.02 144.4C965.286 141.833 961.086 140.55 956.42 140.55C951.753 140.55 947.436 141.833 943.47 144.4C939.736 146.967 936.703 150.233 934.37 154.2C932.27 158.167 931.22 162.367 931.22 166.8V191.3C931.22 195.967 932.27 200.4 934.37 204.6C936.703 208.567 939.736 211.833 943.47 214.4C947.436 216.967 951.753 218.25 956.42 218.25ZM1087.95 262C1080.25 262 1073.83 260.25 1068.7 256.75C1063.8 253.25 1061.35 249.4 1061.35 245.2V111.85C1061.35 106.95 1063.8 102.983 1068.7 99.95C1073.83 96.9167 1080.25 95.4 1087.95 95.4C1094.71 95.4 1100.43 96.9167 1105.1 99.95C1109.76 102.983 1112.1 106.95 1112.1 111.85V124.8C1114.43 119.667 1117.7 114.767 1121.9 110.1C1126.33 105.2 1131.23 101.233 1136.6 98.2C1142.2 94.9333 1147.91 93.3 1153.75 93.3H1163.9C1169.03 93.3 1173.46 95.6333 1177.2 100.3C1181.16 104.967 1183.15 110.45 1183.15 116.75C1183.15 123.283 1181.16 128.883 1177.2 133.55C1173.46 138.217 1169.03 140.55 1163.9 140.55H1153.75C1147.45 140.55 1141.38 142.767 1135.55 147.2C1129.71 151.4 1124.93 157.35 1121.2 165.05C1117.46 172.75 1115.6 181.967 1115.6 192.7V245.2C1115.6 249.4 1112.91 253.25 1107.55 256.75C1102.18 260.25 1095.65 262 1087.95 262ZM1226.04 262C1220.21 262 1214.72 260.6 1209.59 257.8C1204.69 255 1202.24 250.8 1202.24 245.2V22.95C1202.24 17.35 1204.69 13.15 1209.59 10.35C1214.72 7.54999 1220.21 6.15 1226.04 6.15H1350.64C1356.47 6.15 1360.67 8.71666 1363.24 13.85C1365.81 18.75 1367.09 24 1367.09 29.6C1367.09 36.1333 1365.69 41.85 1362.89 46.75C1360.09 51.4167 1356.01 53.75 1350.64 53.75H1256.84V112.9H1309.34C1314.71 112.9 1318.79 115.117 1321.59 119.55C1324.39 123.75 1325.79 128.65 1325.79 134.25C1325.79 138.917 1324.51 143.583 1321.94 148.25C1319.37 152.683 1315.17 154.9 1309.34 154.9H1256.84V214.4H1350.64C1356.01 214.4 1360.09 216.85 1362.89 221.75C1365.69 226.417 1367.09 232.017 1367.09 238.55C1367.09 244.15 1365.81 249.517 1363.24 254.65C1360.67 259.55 1356.47 262 1350.64 262H1226.04ZM1438.61 265.5C1427.88 265.5 1417.84 262 1408.51 255C1399.18 248 1391.71 238.9 1386.11 227.7C1380.51 216.267 1377.71 204.133 1377.71 191.3V166.8C1377.71 153.267 1380.51 141.017 1386.11 130.05C1391.71 118.85 1399.18 109.983 1408.51 103.45C1417.84 96.6833 1428.23 93.3 1439.66 93.3C1450.39 93.3 1459.49 96.1 1466.96 101.7C1474.66 107.067 1480.38 113.133 1484.11 119.9V16.65C1484.11 11.75 1486.79 7.78332 1492.16 4.74999C1497.53 1.71666 1504.06 0.199991 1511.76 0.199991C1519.46 0.199991 1525.76 1.71666 1530.66 4.74999C1535.79 7.78332 1538.36 11.75 1538.36 16.65V245.2C1538.36 249.4 1535.79 253.25 1530.66 256.75C1525.76 260.25 1519.46 262 1511.76 262C1505.23 262 1499.51 260.25 1494.61 256.75C1489.94 253.25 1487.61 249.4 1487.61 245.2V237.5C1484.11 244.733 1477.81 251.267 1468.71 257.1C1459.84 262.7 1449.81 265.5 1438.61 265.5ZM1457.16 218.25C1462.29 218.25 1466.84 216.85 1470.81 214.05C1474.78 211.017 1477.93 207.75 1480.26 204.25C1482.83 200.517 1484.11 197.717 1484.11 195.85V166.8C1484.11 161.2 1482.71 156.533 1479.91 152.8C1477.34 148.833 1473.96 145.8 1469.76 143.7C1465.79 141.6 1461.71 140.55 1457.51 140.55C1452.84 140.55 1448.53 141.833 1444.56 144.4C1440.59 146.967 1437.44 150.233 1435.11 154.2C1433.01 158.167 1431.96 162.367 1431.96 166.8V191.3C1431.96 195.733 1433.01 200.05 1435.11 204.25C1437.44 208.45 1440.48 211.833 1444.21 214.4C1448.18 216.967 1452.49 218.25 1457.16 218.25ZM1648.33 265.5C1633.86 265.5 1620.56 262.117 1608.43 255.35C1596.3 248.35 1586.61 239.25 1579.38 228.05C1572.15 216.85 1568.53 204.833 1568.53 192V112.2C1568.53 108 1571.21 104.15 1576.58 100.65C1581.95 97.15 1588.36 95.4 1595.83 95.4C1603.06 95.4 1609.36 97.15 1614.73 100.65C1620.1 104.15 1622.78 108 1622.78 112.2V192C1622.78 196.433 1623.95 200.633 1626.28 204.6C1628.61 208.567 1631.65 211.833 1635.38 214.4C1639.35 216.967 1643.66 218.25 1648.33 218.25C1653 218.25 1657.2 216.967 1660.93 214.4C1664.9 211.833 1667.93 208.567 1670.03 204.6C1672.36 200.633 1673.53 196.433 1673.53 192V111.85C1673.53 107.417 1676.21 103.567 1681.58 100.3C1687.18 97.0333 1693.6 95.4 1700.83 95.4C1708.76 95.4 1715.18 97.0333 1720.08 100.3C1725.21 103.567 1727.78 107.417 1727.78 111.85V192C1727.78 205.067 1724.16 217.2 1716.93 228.4C1709.7 239.6 1700.01 248.583 1687.88 255.35C1675.98 262.117 1662.8 265.5 1648.33 265.5Z" fill="black"/>
</svg>
