<svg width="604" height="604" viewBox="0 0 604 604" fill="none" xmlns="http://www.w3.org/2000/svg">
<path d="M0 302C0 136.315 136.315 0 302 0C467.685 0 604 136.315 604 302C604 467.685 467.685 604 302 604C136.315 604 0 467.685 0 302Z" fill="black"/>
<path d="M242.39 287.692C227.072 275.855 212.291 264.256 197.319 252.917C181.055 240.603 201.339 255.742 184.9 243.667C182.744 242.081 182.574 240.823 183.607 238.471C188.3 227.825 194.579 218.547 204.471 212.005C206.735 210.507 208.078 210.45 210.202 212.388C235.108 238.471 260.266 264.023 260.266 264.023C260.266 264.023 261.853 265.37 262.855 266.22C276.018 253.917 289.223 241.888 302.086 229.491C331.694 200.958 362.072 173.311 394.47 147.964C397.597 145.514 400.729 143.032 404.083 140.924C406.631 139.323 407.928 137.448 407.359 134.443C406.336 129.071 408.548 125.999 413.334 123.181C427.458 114.867 441.189 105.879 455.324 97C458.72 101.642 461.981 106.102 465.5 110.914C461.055 114.582 456.714 118.198 452.342 121.777C443.117 129.335 433.799 136.785 424.688 144.483C422.435 146.384 420.512 146.933 418.042 145.415C414.45 143.213 411.706 144.291 408.6 146.943C378.243 172.902 349.854 200.932 321.947 229.471C307.58 244.162 293.016 258.662 278.545 273.26C277.248 274.57 274.5 278 274.5 278C274.5 278 276.959 280.072 278.168 281.232C303.254 305.274 322.98 332.911 332.919 366.578C341.937 397.136 341.627 428.063 329.249 457.445C313.59 494.63 285.186 509.57 249.212 506.643C234.803 505.472 222.973 498.422 212.405 488.755C195.888 473.644 188.265 454.291 186.787 432.668C184.957 405.907 188.59 379.663 199.34 354.86C206.203 339.024 214.627 324.001 225.325 310.346C230.875 303.269 236.157 295.986 242.39 287.692ZM255.5 299C254.421 300.348 254.633 300.026 254.421 300.348C245.682 313.573 236.923 325.477 228.296 340.075C218 357.5 214.477 367.971 210.901 383.32C207.795 396.644 207.226 410.18 207.562 423.67C208.007 441.62 212.73 458.212 226.606 470.992C234.24 478.022 242.684 483.28 253.294 483.508C278.065 484.036 295.652 474.24 306.314 447.349C314.515 426.664 314.551 404.855 309.91 383.103C305.254 361.283 293.967 342.748 280.618 325.477C272 316 265 308.5 255.5 299Z" fill="white"/>
<path d="M186.71 190.877C174.456 199.523 165.924 210.651 159.231 224.814C152.854 219.297 146.29 214.608 141.014 208.755C136.461 203.699 137.396 195.757 141.618 190.323C144.223 186.977 146.807 183.609 149.551 180.377C155.272 173.637 164.172 172.166 171.247 177.388C176.621 181.356 181.376 186.168 186.71 190.877Z" fill="white"/>
<path d="M200.865 204.88C188.875 213.039 181.097 224.047 175.221 236.987C171.743 234.402 168.606 232.071 165.19 229.533C171.092 217.354 177.852 206.149 189.201 198.415C191.133 197.099 192.637 196.995 194.358 198.86C196.229 200.891 198.405 202.632 200.865 204.88Z" fill="white"/>
</svg>
