<svg width="1800" height="1800" viewBox="0 0 1800 1800" fill="none" xmlns="http://www.w3.org/2000/svg">
<g clip-path="url(#clip0_404_279)">
<rect width="1800" height="1800" fill="#10BB85"/>
<path d="M1463.66 330.696C1448.9 343.252 1443.44 357.51 1443.63 371.821C1443.82 386.078 1449.61 400.294 1457.16 412.86C1464.72 425.437 1474.1 436.442 1481.58 444.295C1485.32 448.224 1488.59 451.369 1490.93 453.534C1491.79 454.332 1492.52 454.997 1493.11 455.519C1492.05 455.713 1490.59 455.978 1488.75 456.309C1484.58 457.058 1478.45 458.144 1470.64 459.486C1455.01 462.17 1432.64 465.881 1405.63 469.986C1351.62 478.198 1279.13 487.989 1205.15 494.308C1131.17 500.629 1055.75 503.472 995.889 497.806C965.955 494.972 939.966 490.015 920.007 482.331C900.027 474.638 886.262 464.279 880.489 450.756C859.419 401.409 882.69 362.958 885.649 359.054C894.412 347.491 909.775 337.615 929.687 329.188C949.577 320.769 973.894 313.841 1000.44 308.11C1053.53 296.648 1115.41 290 1168.34 285.757C1220.71 281.558 1303.88 285.365 1369.34 294.154C1402.09 298.55 1430.32 304.183 1448.04 310.653C1452.46 312.268 1456.21 313.928 1459.2 315.621C1462.19 317.32 1464.37 319.023 1465.71 320.702C1467.04 322.363 1467.5 323.943 1467.23 325.486C1466.96 327.066 1465.87 328.81 1463.66 330.696Z" fill="#FFF500" stroke="black" stroke-width="2"/>
<mask id="path-2-inside-1_404_279" fill="white">
<path fill-rule="evenodd" clip-rule="evenodd" d="M372.273 328.373C378.035 356.15 384.574 387.674 337.999 430.999C300.677 465.716 383.859 494.024 423.999 472.999C427.181 471.332 431.284 469.275 436.153 466.865C464.437 483.386 509.793 494 535 494C578.078 494 611 412.884 611 374.5C611 372.512 610.96 370.544 610.878 368.598C646.713 342.61 673.987 315.162 677.063 290.101C685.765 219.202 598.016 168.748 575.998 210.999C531.975 295.48 497.989 278.997 464.126 262.575C441.07 251.393 418.071 240.239 391.999 260.999C363.074 284.03 367.395 304.86 372.273 328.373Z"/>
</mask>
<path fill-rule="evenodd" clip-rule="evenodd" d="M372.273 328.373C378.035 356.15 384.574 387.674 337.999 430.999C300.677 465.716 383.859 494.024 423.999 472.999C427.181 471.332 431.284 469.275 436.153 466.865C464.437 483.386 509.793 494 535 494C578.078 494 611 412.884 611 374.5C611 372.512 610.96 370.544 610.878 368.598C646.713 342.61 673.987 315.162 677.063 290.101C685.765 219.202 598.016 168.748 575.998 210.999C531.975 295.48 497.989 278.997 464.126 262.575C441.07 251.393 418.071 240.239 391.999 260.999C363.074 284.03 367.395 304.86 372.273 328.373Z" fill="white"/>
<path d="M337.999 430.999L336.637 429.534L336.637 429.534L337.999 430.999ZM372.273 328.373L370.314 328.779L370.314 328.779L372.273 328.373ZM423.999 472.999L424.927 474.771L424.927 474.771L423.999 472.999ZM436.153 466.865L437.162 465.138L436.232 464.595L435.266 465.073L436.153 466.865ZM610.878 368.598L609.704 366.979L608.834 367.609L608.88 368.682L610.878 368.598ZM677.063 290.101L679.048 290.344L679.048 290.344L677.063 290.101ZM575.998 210.999L574.225 210.075L574.225 210.075L575.998 210.999ZM464.126 262.575L464.999 260.775L464.999 260.775L464.126 262.575ZM391.999 260.999L393.244 262.564L393.244 262.564L391.999 260.999ZM339.361 432.463C362.866 410.599 373.149 391.538 376.721 374.26C380.282 357.034 377.106 341.825 374.231 327.967L370.314 328.779C373.202 342.699 376.176 357.14 372.804 373.451C369.442 389.71 359.707 408.074 336.637 429.534L339.361 432.463ZM423.071 471.227C413.424 476.28 401.061 478.425 388.416 478.189C375.786 477.954 363.041 475.346 352.718 471.056C342.31 466.73 334.742 460.859 331.877 454.358C330.472 451.172 330.172 447.79 331.248 444.209C332.336 440.59 334.871 436.641 339.361 432.463L336.637 429.534C331.797 434.037 328.767 438.566 327.417 443.058C326.055 447.589 326.444 451.95 328.217 455.971C331.705 463.886 340.444 470.286 351.183 474.749C362.008 479.248 375.253 481.944 388.342 482.188C401.416 482.432 414.503 480.231 424.927 474.771L423.071 471.227ZM435.266 465.073C430.395 467.483 426.275 469.549 423.071 471.227L424.927 474.771C428.087 473.115 432.172 471.067 437.04 468.658L435.266 465.073ZM535 492C522.623 492 505.162 489.385 487.237 484.693C469.317 480.002 451.094 473.276 437.162 465.138L435.144 468.592C449.496 476.975 468.093 483.816 486.224 488.563C504.349 493.308 522.169 496 535 496V492ZM609 374.5C609 393.274 600.898 422.821 587.396 447.69C580.657 460.103 572.633 471.234 563.713 479.237C554.792 487.242 545.112 492 535 492V496C546.426 496 557.017 490.619 566.384 482.215C575.753 473.809 584.036 462.262 590.912 449.598C604.64 424.313 613 394.11 613 374.5H609ZM608.88 368.682C608.96 370.599 609 372.539 609 374.5H613C613 372.485 612.959 370.489 612.876 368.514L608.88 368.682ZM675.078 289.857C673.612 301.8 666.331 314.557 654.756 327.679C643.209 340.769 627.56 354.03 609.704 366.979L612.052 370.217C630.031 357.179 645.938 343.722 657.755 330.325C669.545 316.96 677.438 303.462 679.048 290.344L675.078 289.857ZM577.772 211.923C582.883 202.116 591.753 197.662 602.321 197.564C612.985 197.465 625.35 201.83 636.919 209.768C660.063 225.648 679.317 255.321 675.078 289.857L679.048 290.344C683.511 253.982 663.242 222.978 639.182 206.47C627.149 198.213 613.993 193.455 602.284 193.564C590.478 193.673 580.123 198.757 574.225 210.075L577.772 211.923ZM463.254 264.374C480.039 272.515 497.672 281.153 516.72 276.57C535.832 271.972 555.695 254.289 577.772 211.923L574.225 210.075C552.278 252.19 533.136 268.506 515.784 272.681C498.368 276.871 482.077 269.057 464.999 260.775L463.254 264.374ZM393.244 262.564C405.851 252.525 417.573 250.271 428.928 251.791C440.442 253.332 451.66 258.751 463.254 264.374L464.999 260.775C453.537 255.216 441.726 249.468 429.459 247.826C417.033 246.163 404.218 248.712 390.753 259.434L393.244 262.564ZM374.231 327.967C371.776 316.133 369.582 305.432 371.43 294.849C373.254 284.405 379.078 273.844 393.244 262.564L390.753 259.434C375.995 271.185 369.517 282.554 367.49 294.161C365.487 305.629 367.892 317.1 370.314 328.779L374.231 327.967Z" fill="black" mask="url(#path-2-inside-1_404_279)"/>
<path d="M1649.87 877.084C1649.26 877.16 1648.41 877.267 1647.32 877.397C1644.97 877.676 1641.57 878.063 1637.32 878.494C1628.82 879.354 1616.97 880.387 1603.53 881.076C1576.62 882.454 1543.47 882.447 1518.21 876.96C1494.06 871.711 1465.07 858.829 1442.08 847.224C1430.6 841.427 1420.63 835.959 1413.53 831.94C1409.98 829.93 1407.15 828.284 1405.21 827.14C1404.33 826.623 1403.63 826.209 1403.13 825.91L1585.28 568.124L1649.87 877.084Z" fill="white" stroke="black" stroke-width="2"/>
<path d="M665.82 1437.55C663.335 1434.69 659.092 1432.03 653.193 1429.6C647.312 1427.18 639.876 1425.02 631.098 1423.1C613.544 1419.27 590.732 1416.44 564.499 1414.4C512.041 1410.33 446.025 1409.45 381.302 1410.09C316.584 1410.73 253.181 1412.89 205.956 1414.88C182.343 1415.88 162.777 1416.84 149.113 1417.55C142.282 1417.9 136.926 1418.19 133.278 1418.4C131.454 1418.5 130.058 1418.58 129.117 1418.63C128.987 1418.64 128.865 1418.65 128.753 1418.65L144.422 1549.21L664.053 1577.94C664.098 1577.81 664.15 1577.66 664.207 1577.5C664.469 1576.75 664.85 1575.65 665.322 1574.23C666.265 1571.38 667.575 1567.28 669.037 1562.22C671.962 1552.11 675.494 1538.21 677.923 1523.04C680.353 1507.87 681.675 1491.48 680.201 1476.36C678.727 1461.24 674.464 1447.51 665.82 1437.55Z" fill="white" stroke="black" stroke-width="2"/>
<path d="M1440.95 810.091C1465.33 778.627 1488.57 746.27 1511.34 713.627C1533.4 681.949 1559.1 650.343 1574.65 614.804C1575.26 613.41 1573.22 612.23 1572.61 613.624C1557.64 647.84 1533.15 678.195 1511.91 708.693C1488.43 742.48 1464.48 775.91 1439.27 808.446C1438.34 809.626 1440.02 811.306 1440.95 810.091Z" fill="black"/>
<path d="M1572.47 616.449C1578.91 654.92 1588.59 692.926 1597.14 730.968C1605.75 769.26 1614.55 807.516 1625.27 845.308C1625.7 846.774 1627.99 846.166 1627.56 844.664C1616.8 806.909 1608 768.652 1599.43 730.324C1590.88 692.282 1581.19 654.276 1574.76 615.805C1574.51 614.339 1572.22 614.983 1572.47 616.449Z" fill="black"/>
<path d="M1438.24 812.093C1446.74 823.391 1461.26 829.362 1473.84 834.939C1488.96 841.625 1505.09 847.525 1521.46 849.992C1537.87 852.459 1554.95 851.994 1571.51 852.459C1589.56 852.959 1607.36 852.745 1624.95 848.275C1626.42 847.882 1625.81 845.63 1624.31 845.987C1594.71 853.531 1560.67 851.1 1530.43 848.633C1515.31 847.417 1500.83 843.055 1486.71 837.728C1471.59 832.008 1450.28 824.32 1440.24 810.949C1439.38 809.697 1437.31 810.877 1438.24 812.093Z" fill="black"/>
<path d="M1455.9 802.117C1459.08 802.26 1462.26 802.153 1465.44 801.796C1466.94 801.653 1466.94 799.257 1465.44 799.436C1462.26 799.793 1459.08 799.901 1455.9 799.758C1454.36 799.686 1454.36 802.046 1455.9 802.117Z" fill="black"/>
<path d="M1482.31 801.117C1487.71 801.796 1493.11 802.475 1498.54 803.155C1500.05 803.333 1500.05 800.974 1498.54 800.795C1493.15 800.116 1487.75 799.436 1482.31 798.757C1480.81 798.542 1480.81 800.902 1482.31 801.117Z" fill="black"/>
<path d="M1515.42 803.226C1520.6 804.263 1525.78 805.3 1530.97 806.337C1532.47 806.623 1533.08 804.37 1531.61 804.048C1526.43 803.012 1521.24 801.975 1516.06 800.938C1514.56 800.652 1513.95 802.94 1515.42 803.226Z" fill="black"/>
<path d="M1550.41 808.732C1554.13 810.198 1557.96 811.378 1561.85 812.307C1563.32 812.665 1563.96 810.377 1562.5 810.019C1558.6 809.089 1554.78 807.91 1551.06 806.444C1549.63 805.907 1549.02 808.196 1550.41 808.732Z" fill="black"/>
<path d="M1579.08 817.563C1582.19 818.922 1585.38 820.101 1588.59 821.174C1590.06 821.639 1590.67 819.351 1589.24 818.886C1586.2 817.92 1583.2 816.812 1580.26 815.525C1578.91 814.917 1577.69 816.955 1579.08 817.563Z" fill="black"/>
<path d="M1604.54 827.145C1607.65 829.004 1610.83 830.649 1614.12 832.151C1615.51 832.758 1616.69 830.72 1615.3 830.113C1612.01 828.647 1608.79 826.966 1605.72 825.107C1604.43 824.32 1603.22 826.358 1604.54 827.145Z" fill="black"/>
<path d="M1530 829.326C1546.55 832.759 1563.57 832.687 1580.09 836.477C1595.42 840.017 1610.19 845.237 1625.88 847.31C1627.38 847.489 1627.38 845.129 1625.88 844.951C1609.01 842.734 1593.17 836.692 1576.58 833.295C1561.42 830.184 1545.84 830.184 1530.68 827.074C1529.14 826.752 1528.5 829.005 1530 829.326Z" fill="black"/>
<path d="M493.581 856.573L493.582 856.57C511.523 801.293 487.595 739.345 434.435 711.461C381.275 683.578 316.723 699.112 281.447 745.287C279.163 748.291 275.002 749.176 271.683 747.417C271.683 747.417 271.682 747.417 271.682 747.416L246.94 734.432L246.938 734.432C244.111 732.944 240.604 734.042 239.112 736.877C239.112 736.877 239.112 736.877 239.112 736.878L227.488 759.015L227.488 759.016C226 761.844 227.098 765.352 229.933 766.844L505.132 911.19L505.133 911.191C507.961 912.679 511.468 911.581 512.96 908.745L524.583 886.607L524.584 886.606C526.072 883.779 524.974 880.273 522.141 878.78L493.581 856.573ZM493.581 856.573C492.428 860.165 494.027 864.07 497.385 865.817C497.385 865.817 497.386 865.818 497.386 865.818L522.139 878.779L493.581 856.573ZM229.467 767.728L504.668 912.076L229.467 767.728ZM459.754 834.706L459.755 834.704C466.413 799.623 449.865 762.804 416.649 745.369C383.454 727.944 343.717 735.26 318.642 760.689L318.638 760.694C314.987 764.443 315.955 770.678 320.595 773.099L448.442 840.148L448.444 840.149C453.099 842.577 458.769 839.835 459.754 834.706Z" fill="#004AB3" stroke="black" stroke-width="2"/>
<path d="M405.461 285.72C453.365 340.543 498.117 398.026 539.526 457.917C540.166 458.836 541.525 457.79 540.884 456.871C499.488 397.001 454.723 339.496 406.819 284.674C406.117 283.844 404.737 284.902 405.461 285.72Z" fill="black"/>
<path d="M368.952 453.951C456.478 389.513 544.763 324.193 615.725 241.063C616.453 240.224 615.082 239.18 614.355 240.019C543.497 323.037 455.305 388.224 367.905 452.592C367.02 453.242 368.045 454.612 368.952 453.951Z" fill="black"/>
<path d="M409.905 274.629C412.117 275.598 414.33 276.568 416.542 277.537C417.555 277.977 418.212 276.404 417.187 275.943C414.975 274.974 412.762 274.004 410.55 273.035C409.537 272.595 408.892 274.189 409.905 274.629Z" fill="black"/>
<path d="M412.853 269.43C416.221 273.823 417.947 278.948 417.859 284.485C417.844 285.569 419.554 285.82 419.556 284.716C419.672 278.722 417.863 273.145 414.212 268.384C413.541 267.51 412.182 268.556 412.853 269.43Z" fill="black"/>
<path d="M614.008 260.924C618.209 261.799 622.425 261.59 626.54 260.389C627.611 260.079 626.957 258.478 625.885 258.788C622.06 259.914 618.122 260.026 614.226 259.205C613.156 258.963 612.937 260.682 614.008 260.924Z" fill="black"/>
<path d="M619.844 255.002C620.314 258.938 620.165 262.853 619.453 266.746C619.255 267.847 620.953 268.078 621.151 266.976C621.902 262.952 622.032 258.853 621.547 254.788C621.42 253.699 619.717 253.913 619.844 255.002Z" fill="black"/>
<path d="M605.343 241.194C608.777 240.613 612.195 240.51 615.664 240.902C615.403 240.576 615.175 240.26 614.914 239.933C614.474 242.408 614.519 244.811 615.119 247.269C615.375 248.343 617.078 248.129 616.822 247.055C616.271 244.736 616.211 242.507 616.612 240.164C616.692 239.706 616.329 239.242 615.861 239.195C612.251 238.796 608.692 238.894 605.108 239.502C604.03 239.65 604.256 241.375 605.343 241.194Z" fill="black"/>
<path d="M407.145 291.171C406.893 290.206 406.631 289.273 406.379 288.307C406.239 287.749 406.119 287.126 405.915 286.602C405.865 286.409 405.814 286.216 405.764 286.023C405.287 285.705 405.24 285.62 405.656 285.724C406.287 285.516 407.703 286.039 408.346 286.156C409.426 286.365 410.508 286.629 411.569 286.904C412.629 287.179 413.286 285.606 412.214 285.31C410.748 284.898 409.262 284.552 407.769 284.292C406.853 284.131 405.251 283.572 404.399 284.232C403.704 284.777 403.91 285.658 404.088 286.388C404.555 288.201 405.056 290.024 405.544 291.826C405.822 292.888 407.422 292.233 407.145 291.171Z" fill="black"/>
<path d="M447.464 419.185C441.601 399.937 435.724 380.614 431.834 360.839C429.969 351.376 428.578 341.82 427.866 332.196C427.47 326.73 427.022 321.017 427.394 315.545C427.694 311.05 427.764 307.647 433.862 306.188C436.47 305.562 440.054 306.416 442.716 306.946C477.82 313.847 507.407 336.481 542.051 345.012C543.133 345.275 543.351 343.556 542.281 343.313C521.341 338.157 502.289 328.08 482.761 319.2C473.354 314.909 463.774 310.907 453.855 308C447.242 306.044 436.947 302.046 430.34 305.548C424.275 308.782 425.563 316.988 425.691 322.821C425.931 334.054 427.243 345.281 429.231 356.331C433.09 377.916 439.473 398.921 445.876 419.86C446.196 420.899 447.796 420.245 447.464 419.185Z" fill="black"/>
<path d="M908.033 439.403C917.32 414.309 925.666 388.895 933.129 363.216C932.236 363.257 931.343 363.298 930.451 363.339C934.513 376.762 937.896 389.964 939.419 403.916C940.601 414.772 941.872 425.447 947.385 435.048C948.291 436.59 950.608 435.08 949.702 433.538C943.204 422.271 943.057 409.473 941.376 396.936C939.802 385.155 936.479 373.784 933.055 362.448C932.626 361.083 930.74 361.313 930.377 362.571C922.914 388.249 914.568 413.663 905.28 438.757C904.717 440.423 907.424 441.047 908.033 439.403Z" fill="#004AB3"/>
<path d="M914.399 410.962C923.747 409.352 933.166 408.171 942.646 407.497C944.42 407.382 944.296 404.59 942.522 404.706C933.043 405.379 923.657 406.549 914.276 408.171C912.571 408.489 912.661 411.293 914.399 410.962Z" fill="#004AB3"/>
<path d="M959.834 397.991C969.168 397.443 978.492 397.088 987.851 396.947C989.648 396.899 989.536 394.141 987.727 394.155C978.368 394.296 969.044 394.651 959.71 395.199C957.936 395.314 958.015 398.084 959.834 397.991Z" fill="#004AB3"/>
<path d="M963.39 411.7C973.956 411.109 984.522 410.518 995.087 409.927C996.861 409.811 996.749 407.053 994.964 407.135C984.398 407.726 973.832 408.317 963.267 408.908C961.493 409.024 961.616 411.816 963.39 411.7Z" fill="#004AB3"/>
<path d="M1014.92 378.318C1022.88 388.025 1030.84 397.698 1038.81 407.404C1039.47 408.236 1041.14 408.268 1041.34 406.955C1043.57 392.284 1045.73 377.603 1048 362.921C1048.83 357.612 1050.48 353.382 1056.62 352.791C1060.27 352.412 1063.99 352.349 1067.66 352.151C1075.02 351.788 1082.38 351.539 1089.78 351.312C1118.7 350.374 1147.5 348.725 1176.3 345.787C1233.99 339.922 1291.7 331.705 1349.83 335.289C1351.61 335.399 1351.48 332.607 1349.71 332.497C1300.81 329.497 1252.04 334.807 1203.49 340.114C1179.37 342.733 1155.26 345.352 1131.02 346.841C1106.67 348.331 1082.22 348.193 1057.9 349.898C1048.08 350.574 1046.48 354.521 1045.11 363.644C1042.95 377.874 1040.79 392.103 1038.66 406.32C1039.52 406.178 1040.33 406.013 1041.19 405.871C1033.22 396.164 1025.27 386.491 1017.3 376.784C1016.14 375.482 1013.81 376.959 1014.92 378.318Z" fill="#004AB3"/>
<path d="M1064.15 376.023C1062.8 371.952 1065.53 371.207 1072.41 373.766C1072.35 374.919 1072.27 376.118 1072.21 377.272C1071.63 380.42 1070.01 382.976 1068.19 385.489C1065.46 389.219 1062.25 392.659 1059.21 396.153C1058.51 396.962 1059.02 398.676 1060.31 398.463C1067.43 397.311 1073.33 402.85 1080.32 399.324C1081.9 398.521 1080.42 396.192 1078.81 397.007C1072.91 399.97 1066.35 394.696 1060.19 395.705C1060.57 396.482 1060.92 397.271 1061.29 398.014C1067.43 390.888 1079.6 379.883 1074.04 369.242C1072.49 366.257 1068.87 363.64 1065.44 365.193C1061.42 367.022 1060.8 372.409 1061.43 376.124C1061.66 377.897 1064.46 377.807 1064.15 376.023Z" fill="#004AB3"/>
<path d="M1096.85 362.801C1095.09 366.161 1087.72 374.766 1091.75 378.602C1093.7 380.429 1097.08 379.272 1099.3 380.137C1105.39 382.588 1103.16 388.983 1099.33 392.031C1097.01 393.881 1093.98 394.73 1091.18 395.611C1089.48 396.156 1090.31 398.817 1092.05 398.261C1098.58 396.141 1106.84 392.335 1105.8 384.111C1105.46 381.468 1104.13 379.24 1101.73 378.06C1100.5 377.459 1099.22 377.594 1098.02 377.173C1097.11 377.147 1096.32 376.734 1095.67 375.937C1093.63 375.613 1093.15 374.871 1094.25 373.664C1094.33 371.142 1098.15 366.284 1099.32 364.07C1100.14 362.504 1097.67 361.234 1096.85 362.801Z" fill="#004AB3"/>
<path d="M1097.5 364.808C1102.89 364.664 1108.21 364.091 1113.52 363.066C1115.26 362.736 1114.39 360.086 1112.65 360.416C1107.62 361.382 1102.5 361.886 1097.37 362.016C1095.59 362.098 1095.7 364.856 1097.5 364.808Z" fill="#004AB3"/>
<path d="M1134.79 384.699C1143.33 383.819 1151.78 382.554 1160.17 380.929C1161.91 380.599 1161.04 377.948 1159.3 378.278C1151.12 379.869 1142.91 381.052 1134.63 381.919C1132.91 382.091 1133.04 384.883 1134.79 384.699Z" fill="#004AB3"/>
<path d="M1148.11 374.171C1148.42 381.247 1148.73 388.356 1149.01 395.443C1149.09 397.229 1151.84 397.117 1151.8 395.32C1151.49 388.244 1151.18 381.135 1150.91 374.048C1150.79 372.274 1148.03 372.385 1148.11 374.171Z" fill="#004AB3"/>
<path d="M1185.54 358.005C1186.06 370.337 1186.6 382.622 1187.11 394.954C1187.19 396.74 1189.95 396.628 1189.9 394.83C1189.39 382.499 1188.85 370.213 1188.33 357.882C1188.25 356.096 1185.46 356.219 1185.54 358.005Z" fill="#004AB3"/>
<path d="M1218.86 353.336C1211.54 355.802 1208.6 363.988 1209.33 371.218C1209.91 376.765 1214.12 387.53 1220.85 388.326C1228.14 389.196 1230.8 373.663 1231.08 368.957C1231.56 361.536 1227.94 354.498 1220.73 352.089C1219.03 351.537 1218.41 354.244 1220.11 354.796C1226.89 357.05 1229.05 364.247 1228.12 370.688C1227.49 375.057 1225.49 387.532 1218.38 383.653C1209.28 378.681 1209.75 359.287 1219.68 355.964C1221.42 355.408 1220.58 352.746 1218.86 353.336Z" fill="#004AB3"/>
<path d="M1244.36 376.542C1246.15 376.46 1246.04 373.702 1244.24 373.75C1242.45 373.832 1242.58 376.624 1244.36 376.542Z" fill="#004AB3"/>
<path d="M1259.5 367.662C1263.97 374.784 1268.45 381.906 1272.94 389.062C1273.52 389.996 1275.32 389.835 1275.47 388.613C1276.34 381.664 1277.18 374.726 1278.05 367.777C1279.07 359.38 1277.9 348.444 1288.42 346.056C1294.76 344.604 1302.45 345.449 1308.93 345.161C1315.93 344.88 1322.93 344.566 1329.9 344.297C1331.69 344.215 1331.58 341.457 1329.78 341.505C1320.61 341.882 1311.41 342.27 1302.25 342.647C1296.21 342.897 1286.79 341.512 1281.52 345.352C1277.21 348.529 1276.89 354.456 1276.29 359.311C1275.1 368.863 1273.94 378.403 1272.75 387.955C1273.61 387.813 1274.42 387.648 1275.28 387.506C1270.8 380.384 1266.32 373.262 1261.84 366.106C1260.89 364.655 1258.56 366.131 1259.5 367.662Z" fill="#004AB3"/>
<path d="M1304.61 354.195C1301.77 358.038 1298.68 361.816 1296 365.794C1295.07 367.17 1294.03 368.207 1294.89 369.839C1295.51 370.988 1296.7 371.148 1297.8 371.603C1300.1 372.591 1304.96 374.86 1305.07 378.07C1305.24 382.207 1298.48 382.78 1295.67 383.175C1293.9 383.404 1294.02 386.195 1295.8 385.967C1301.53 385.176 1310.81 383.249 1307.06 375.726C1305.49 372.561 1303.03 371.438 1300.37 369.514C1299.96 369.201 1298.67 369.301 1298.45 368.884C1297.6 367.399 1299.96 365.119 1300.73 364.061C1302.72 361.378 1304.68 358.705 1306.68 356.055C1307.71 354.645 1305.7 352.728 1304.61 354.195Z" fill="#004AB3"/>
<path d="M1305.61 357.104C1310.44 356.207 1315.27 355.31 1320.1 354.413C1321.84 354.083 1320.97 351.433 1319.23 351.763C1314.4 352.66 1309.57 353.557 1304.74 354.454C1303 354.784 1303.87 357.434 1305.61 357.104Z" fill="#004AB3"/>
<path d="M1028.66 422.136C1133.63 412.228 1239.8 417.665 1344.09 400.357C1345.84 400.06 1345.73 397.303 1343.97 397.565C1239.68 414.874 1133.5 409.437 1028.53 419.345C1026.78 419.528 1026.91 422.32 1028.66 422.136Z" fill="#004AB3"/>
<path d="M1190.86 422.92C1187.35 427.142 1183.81 431.375 1180.3 435.564C1178.85 437.305 1176.19 439.349 1176.51 441.846C1176.61 442.455 1176.95 443.018 1177.6 443.137C1183.08 444.361 1195.55 441.607 1196.87 435.073C1197.23 433.25 1194.77 432.805 1194.16 434.449C1191.47 441.718 1192.29 449.072 1196.38 455.643C1197.32 457.173 1199.67 455.651 1198.7 454.132C1194.98 448.112 1194.4 441.661 1196.82 435.05C1195.91 434.831 1195.02 434.646 1194.11 434.427C1193.4 437.96 1187.46 439.047 1184.63 439.713C1181.05 440.521 1180.15 440.867 1182.29 437.414C1185.13 432.892 1189.45 428.844 1192.85 424.77C1194.02 423.427 1192.01 421.543 1190.86 422.92Z" fill="#004AB3"/>
<path d="M1376.94 386.816C1369.16 385.847 1360.91 400.045 1367.51 405.533C1370.56 408.042 1374.86 407.138 1377.63 404.754C1382.01 400.988 1383.32 394.647 1382.88 389.166C1381.99 389.32 1381.06 389.486 1380.17 389.64C1381.62 396.096 1385.26 401.2 1390.72 404.889C1392.19 405.895 1393.5 403.409 1392.03 402.437C1387.18 399.184 1384.1 394.493 1382.83 388.805C1382.49 387.259 1379.98 387.742 1380.12 389.278C1380.56 394.645 1379.08 402.786 1372.74 403.819C1364.47 405.139 1369.54 388.705 1376.33 389.557C1378.08 389.712 1378.72 387.039 1376.94 386.816Z" fill="#004AB3"/>
<path d="M1395.45 376.326C1396.65 371.874 1402.72 374.483 1400.67 378.547C1399.67 380.477 1398.16 381.823 1397.66 383.998C1397.45 384.825 1398.17 385.825 1399.08 385.705C1401.65 385.391 1404.1 385.576 1406.55 386.359C1408.25 386.911 1408.87 384.17 1407.18 383.652C1404.47 382.803 1401.74 382.564 1398.92 382.925C1399.38 383.487 1399.88 384.071 1400.33 384.633C1400.95 382.118 1403.34 380.505 1403.85 377.912C1404.25 375.964 1403.48 373.957 1402.08 372.623C1398.79 369.516 1393.82 371.669 1392.75 375.703C1392.27 377.414 1395.01 378.026 1395.45 376.326Z" fill="#004AB3"/>
<path d="M874.956 1113.09L874.95 1113.09L721.107 1125.07C721.107 1125.07 721.106 1125.07 721.106 1125.07L721.105 1125.07L721.028 1124.07C717.414 1124.36 715.307 1119.2 718.24 1117.26L874.956 1113.09ZM874.956 1113.09C876.634 1112.95 877.872 1111.89 878.41 1110.51C878.944 1109.14 878.79 1107.48 877.818 1106.06C877.817 1106.06 877.815 1106.06 877.814 1106.06L836.361 1043.51L836.356 1043.5C834.961 1041.43 832.167 1040.53 830.075 1041.92L874.956 1113.09ZM967.321 1155.17L967.319 1155.17L504.156 1212.7C494.263 1213.92 489.517 1200.96 497.865 1195.51L849.156 966.384C853.525 963.546 859.34 964.787 862.18 969.16L862.181 969.161L974.045 1140.72C977.82 1146.54 974.219 1154.33 967.321 1155.17Z" fill="#004AB3" stroke="black" stroke-width="2"/>
<path opacity="0.12" d="M602.529 832.749L599.948 933.049L1015.26 834.3" fill="#004AB3"/>
<path d="M1057.67 835.554H611.738C606.972 835.554 603.17 831.809 603.17 827.214V777.135C603.17 772.54 606.972 768.794 611.738 768.794H1057.67C1062.44 768.794 1066.24 772.54 1066.24 777.135V827.214C1066.24 831.809 1062.44 835.554 1057.67 835.554Z" fill="#004AB3" stroke="black" stroke-width="2"/>
<path d="M1081.47 766.794H635.533C630.767 766.794 626.965 763.049 626.965 758.454V708.375C626.965 703.78 630.767 700.035 635.533 700.035H1081.47C1086.23 700.035 1090.04 703.78 1090.04 708.375V758.454C1090.04 763.015 1086.2 766.794 1081.47 766.794Z" fill="#FFF500" stroke="black" stroke-width="2"/>
<path d="M964.54 697.793H518.604C513.838 697.793 510.037 694.048 510.037 689.453V639.373C510.037 634.778 513.838 631.033 518.604 631.033H964.54C969.306 631.033 973.107 634.778 973.107 639.373V689.453C973.107 694.016 969.304 697.793 964.54 697.793Z" fill="#0069FF" stroke="black" stroke-width="2"/>
<path d="M623.07 629.999H575.162V698.793H623.07V629.999Z" fill="#0054CB"/>
<path opacity="0.6" d="M754.44 699H706.531V767.794H754.44V699Z" fill="#F0E704"/>
<path d="M708.967 767.794H661.059V836.589H708.967V767.794Z" fill="#01419C"/>
<path d="M1076.99 699H699.471L1091.04 733.397V712.717C1091.04 705.135 1084.75 699 1076.99 699Z" fill="#F0E704"/>
<path d="M1053.22 767.794H675.675L1067.24 802.192V781.512C1067.24 773.929 1060.96 767.794 1053.22 767.794Z" fill="#01419C"/>
<path d="M1081.47 766.794H635.533C630.767 766.794 626.965 763.049 626.965 758.454V708.375C626.965 703.78 630.767 700.035 635.533 700.035H1081.47C1086.23 700.035 1090.04 703.78 1090.04 708.375V758.454C1090.04 763.015 1086.2 766.794 1081.47 766.794Z" stroke="black" stroke-width="2"/>
<path d="M1057.67 835.554H611.738C606.972 835.554 603.17 831.809 603.17 827.214V777.135C603.17 772.54 606.972 768.794 611.738 768.794H1057.67C1062.44 768.794 1066.24 772.54 1066.24 777.135V827.214C1066.24 831.809 1062.44 835.554 1057.67 835.554Z" stroke="black" stroke-width="2"/>
<path d="M964.54 697.793H518.604C513.838 697.793 510.037 694.048 510.037 689.453V639.373C510.037 634.778 513.838 631.033 518.604 631.033H964.54C969.306 631.033 973.107 634.778 973.107 639.373V689.453C973.107 694.016 969.304 697.793 964.54 697.793Z" stroke="black" stroke-width="2"/>
<path d="M819.841 947.707L469.365 1178.1C460.142 1184.15 465.469 1198.48 476.408 1197.09L939.383 1137.88C946.997 1136.92 950.966 1128.3 946.747 1121.86L834.283 950.674C831.102 945.883 824.631 944.56 819.841 947.707ZM846.652 1094.15L692.863 1106.67C689.217 1106.95 687.108 1101.81 690.075 1099.84L802.181 1024.9C803.719 1023.86 805.899 1024.47 807.079 1026.22L848.761 1088.61C850.299 1090.97 849.155 1093.94 846.652 1094.15Z" fill="#F0E704"/>
<path d="M1377.52 794.296L1377.53 794.295C1380.98 792.319 1382.17 787.927 1380.16 784.436L1377.52 794.296ZM1377.52 794.296L1010.64 1006.14M1377.52 794.296L1010.64 1006.14M1010.64 1006.14L1010.64 1006.14C1007.18 1008.11 1002.79 1006.95 1000.78 1003.5C1000.78 1003.5 1000.78 1003.5 1000.78 1003.5L980.085 967.678C980.085 967.677 980.084 967.677 980.084 967.677C978.105 964.219 979.268 959.824 982.721 957.813C982.721 957.813 982.722 957.813 982.723 957.812L1349.6 745.975C1349.6 745.975 1349.6 745.974 1349.6 745.974C1353.06 743.995 1357.45 745.158 1359.46 748.611C1359.46 748.612 1359.46 748.613 1359.46 748.613L1380.16 784.435L1010.64 1006.14Z" fill="#F0E704" stroke="black" stroke-width="2"/>
<path d="M1343.53 643.387L1062.51 960.451C1059.51 963.847 1054.32 964.169 1050.93 961.166L1019.97 933.707C1016.57 930.704 1016.25 925.52 1019.25 922.123L1300.27 605.059C1303.27 601.663 1308.46 601.341 1311.85 604.344L1342.81 631.803C1346.24 634.806 1346.53 639.991 1343.53 643.387Z" fill="#01419C"/>
<path d="M1342.53 638.387L1061.51 955.451C1058.51 958.847 1053.32 959.169 1049.93 956.166L1018.97 928.707C1015.57 925.704 1015.25 920.52 1018.25 917.123L1299.27 600.059C1302.27 596.663 1307.46 596.341 1310.85 599.344L1341.81 626.803C1345.24 629.806 1345.53 634.991 1342.53 638.387Z" fill="#004AB3"/>
<rect x="1257.45" y="831.031" width="287.569" height="309.745" rx="14" transform="rotate(24 1257.45 831.031)" fill="black"/>
<path d="M1381.97 1221.79L1145.35 1117.28C1139.88 1114.89 1137.42 1108.49 1139.85 1103.05L1253.74 845.126C1256.14 839.656 1262.54 837.189 1267.97 839.62L1504.59 944.128C1510.06 946.523 1512.52 952.923 1510.09 958.358L1396.2 1216.28C1393.8 1221.72 1387.41 1224.22 1381.97 1221.79Z" fill="#01419C"/>
<path d="M1381.97 1221.79L1145.35 1117.28C1139.88 1114.89 1137.42 1108.49 1139.85 1103.05L1253.74 845.126C1256.14 839.656 1262.54 837.189 1267.97 839.62L1504.59 944.128C1510.06 946.523 1512.52 952.923 1510.09 958.358L1396.2 1216.28C1393.8 1221.72 1387.41 1224.22 1381.97 1221.79Z" fill="#01419C"/>
<path d="M1382.97 1222.79L1146.35 1118.28C1140.88 1115.89 1138.42 1109.49 1140.85 1104.05L1254.74 846.126C1257.14 840.656 1263.54 838.189 1268.97 840.62L1505.59 945.128C1511.06 947.523 1513.52 953.923 1511.09 959.358L1397.2 1217.28C1394.8 1222.72 1388.41 1225.22 1382.97 1222.79Z" fill="#01419C"/>
<path d="M1377.32 1209.28L1149.21 1108.52C1143.75 1106.13 1141.28 1099.73 1143.71 1094.29L1253.71 845.162C1256.1 839.691 1262.5 837.224 1267.93 839.656L1496.04 940.409C1501.51 942.805 1503.98 949.205 1501.55 954.639L1391.55 1203.77C1389.16 1209.21 1382.79 1211.67 1377.32 1209.28Z" fill="#0054CB"/>
<path d="M1300.11 1056.32C1349.69 1088.04 1403.17 1092.72 1441.6 1090.47L1501.59 954.604C1503.98 949.134 1501.51 942.77 1496.08 940.374L1267.97 839.62C1262.5 837.225 1256.14 839.692 1253.74 845.126L1174.77 1023.93C1197.76 1018.96 1240.94 1018.5 1300.11 1056.32Z" fill="#004AB3"/>
<path d="M1476 960.429L1266.74 867.999L1249.83 906.299L1459.09 998.73L1476 960.429Z" fill="#0054CB"/>
<path d="M1244.2 991.252L1211.17 976.664C1210.42 976.342 1210.09 975.448 1210.42 974.698L1224 943.914C1224.32 943.163 1225.22 942.841 1225.97 943.163L1259 957.75C1259.75 958.072 1260.07 958.966 1259.75 959.717L1246.16 990.501C1245.81 991.251 1244.91 991.573 1244.2 991.252Z" fill="#0069FF"/>
<path d="M1291.39 1012.1L1258.35 997.508C1257.6 997.187 1257.28 996.293 1257.6 995.542L1271.19 964.758C1271.51 964.007 1272.4 963.685 1273.15 964.007L1306.19 978.595C1306.94 978.916 1307.26 979.81 1306.94 980.561L1293.35 1011.34C1293.03 1012.1 1292.14 1012.42 1291.39 1012.1Z" fill="#0069FF"/>
<path d="M1338.61 1032.94L1305.58 1018.35C1304.83 1018.03 1304.51 1017.14 1304.83 1016.39L1318.41 985.602C1318.73 984.851 1319.63 984.53 1320.38 984.851L1353.41 999.439C1354.16 999.761 1354.48 1000.65 1354.16 1001.41L1340.58 1032.19C1340.22 1032.94 1339.36 1033.3 1338.61 1032.94Z" fill="#0069FF"/>
<path d="M1385.83 1053.82L1352.8 1039.23C1352.05 1038.91 1351.73 1038.02 1352.05 1037.27L1365.63 1006.48C1365.96 1005.73 1366.85 1005.41 1367.6 1005.73L1400.63 1020.32C1401.38 1020.64 1401.7 1021.53 1401.38 1022.29L1387.8 1053.07C1387.44 1053.78 1386.58 1054.14 1385.83 1053.82Z" fill="#0069FF"/>
<path d="M1433.02 1074.66L1399.99 1060.08C1399.24 1059.76 1398.92 1058.86 1399.24 1058.11L1412.82 1027.33C1413.14 1026.58 1414.04 1026.25 1414.79 1026.58L1447.82 1041.16C1448.57 1041.49 1448.89 1042.38 1448.57 1043.13L1434.99 1073.91C1434.66 1074.66 1433.77 1074.99 1433.02 1074.66Z" fill="#0069FF"/>
<path d="M1218.57 1049.24L1185.54 1034.66C1184.78 1034.33 1184.46 1033.44 1184.78 1032.69L1198.37 1001.91C1198.69 1001.15 1199.58 1000.83 1200.33 1001.16L1233.37 1015.74C1234.12 1016.06 1234.44 1016.96 1234.12 1017.71L1220.53 1048.49C1220.21 1049.24 1219.32 1049.6 1218.57 1049.24Z" fill="#0069FF"/>
<path d="M1265.79 1070.12L1232.76 1055.54C1232.01 1055.21 1231.69 1054.32 1232.01 1053.57L1245.59 1022.79C1245.91 1022.04 1246.81 1021.71 1247.56 1022.04L1280.59 1036.62C1281.34 1036.94 1281.66 1037.84 1281.34 1038.59L1267.76 1069.37C1267.4 1070.09 1266.54 1070.45 1265.79 1070.12Z" fill="#0069FF"/>
<path d="M1313.01 1090.97L1279.98 1076.38C1279.23 1076.06 1278.91 1075.17 1279.23 1074.41L1292.82 1043.63C1293.14 1042.88 1294.03 1042.56 1294.78 1042.88L1327.81 1057.47C1328.56 1057.79 1328.89 1058.68 1328.56 1059.43L1314.98 1090.22C1314.62 1090.97 1313.73 1091.29 1313.01 1090.97Z" fill="#0069FF"/>
<path d="M1360.2 1111.81L1327.17 1097.23C1326.42 1096.9 1326.1 1096.01 1326.42 1095.26L1340 1064.47C1340.33 1063.72 1341.22 1063.4 1341.97 1063.72L1375 1078.31C1375.75 1078.63 1376.07 1079.53 1375.75 1080.28L1362.17 1111.06C1361.85 1111.81 1360.95 1112.13 1360.2 1111.81Z" fill="#0069FF"/>
<path d="M1407.42 1132.66L1374.39 1118.07C1373.64 1117.75 1373.32 1116.85 1373.64 1116.1L1387.23 1085.32C1387.55 1084.57 1388.44 1084.25 1389.19 1084.57L1422.22 1099.16C1422.97 1099.48 1423.3 1100.37 1422.97 1101.12L1409.39 1131.91C1409.03 1132.66 1408.18 1133.01 1407.42 1132.66Z" fill="#0069FF"/>
<path d="M1288.2 1147.1L1255.17 1132.51C1254.42 1132.19 1254.1 1131.3 1254.42 1130.55L1268.01 1099.76C1268.33 1099.01 1269.22 1098.69 1269.97 1099.01L1303 1113.6C1303.75 1113.92 1304.08 1114.82 1303.75 1115.57L1290.17 1146.35C1289.85 1147.07 1288.95 1147.42 1288.2 1147.1Z" fill="#0069FF"/>
<path d="M1233.12 1122.75L1159.87 1090.4C1159.12 1090.07 1158.8 1089.18 1159.12 1088.43L1172.7 1057.65C1173.02 1056.9 1173.92 1056.57 1174.67 1056.9L1247.92 1089.25C1248.67 1089.57 1248.99 1090.47 1248.67 1091.22L1235.08 1122C1234.72 1122.75 1233.87 1123.08 1233.12 1122.75Z" fill="#F0E704"/>
<path d="M1335.43 1167.95L1302.4 1153.36C1301.65 1153.04 1301.32 1152.14 1301.65 1151.39L1315.23 1120.61C1315.55 1119.86 1316.45 1119.54 1317.2 1119.86L1350.23 1134.44C1350.98 1134.77 1351.3 1135.66 1350.98 1136.41L1337.39 1167.19C1337.07 1167.95 1336.18 1168.27 1335.43 1167.95Z" fill="#0069FF"/>
<path d="M1382.65 1188.79L1349.62 1174.2C1348.87 1173.88 1348.55 1172.99 1348.87 1172.24L1362.45 1141.45C1362.77 1140.7 1363.67 1140.38 1364.42 1140.7L1397.45 1155.29C1398.2 1155.61 1398.52 1156.5 1398.2 1157.26L1384.62 1188.04C1384.26 1188.79 1383.4 1189.11 1382.65 1188.79Z" fill="#0069FF"/>
<path d="M495.255 851.207C492.367 849.651 490.973 846.254 492.028 843.11C510.664 787.514 487.155 724.824 433.808 696.226C380.461 667.628 315.16 682.766 279.106 729.042C277.078 731.643 273.478 732.374 270.571 730.835L245.933 717.643C242.609 715.872 238.486 717.114 236.728 720.423L224.885 742.483C223.109 745.808 224.345 749.929 227.651 751.682L501.612 898.437C504.936 900.208 509.059 898.966 510.817 895.657L522.641 873.614C524.418 870.288 523.182 866.168 519.875 864.415L495.255 851.207ZM414.726 731.78C447.402 749.289 463.4 785.843 456.468 820.461C455.566 824.932 450.572 827.275 446.553 825.116L319.273 756.925C315.254 754.766 314.454 749.328 317.688 746.103C342.733 721.193 382.066 714.288 414.726 731.78Z" fill="#F0E704"/>
<path d="M230.601 1449.71C229.245 1462.71 227.937 1476.3 229.062 1489.35C229.843 1498.73 234.661 1506.45 244.337 1508.23C245.461 1508.44 245.568 1506.67 244.444 1506.45C231.78 1504.11 230.567 1491.78 230.616 1481.16C230.669 1470.69 231.269 1460.23 232.372 1449.82C232.485 1448.67 230.713 1448.56 230.601 1449.71Z" fill="black"/>
<path d="M219.239 1470.68C226.169 1472.61 233.16 1473.78 240.325 1474.19C241.445 1474.26 241.586 1472.49 240.431 1472.42C233.414 1472.01 226.563 1470.86 219.806 1468.97C218.733 1468.69 218.138 1470.36 219.239 1470.68Z" fill="black"/>
<path d="M269.14 1480.8C266.84 1475.07 256.982 1472.96 252.478 1477.33C246.795 1482.87 248.08 1494.56 253.104 1499.9C258.359 1505.52 266.133 1504.53 270.155 1498.07C272.564 1494.21 273.123 1489.14 273.141 1484.67C273.161 1482.14 272.823 1479.91 270.36 1478.8C269.729 1478.51 269.06 1479.2 269.213 1479.82C270.327 1484.47 271.51 1489.14 274.145 1493.21C276.726 1497.21 280.287 1500.43 283.786 1503.6C284.637 1504.38 285.963 1503.21 285.112 1502.43C281.853 1499.5 278.601 1496.53 276.081 1492.92C273.298 1488.85 272.072 1484.21 270.905 1479.47C270.531 1479.83 270.131 1480.14 269.758 1480.5C273.649 1482.25 270.363 1493.57 269.161 1495.98C266.031 1502.38 258.686 1503.91 253.846 1498.24C250.11 1493.84 249.847 1487.7 251.659 1482.43C252.919 1478.79 255.43 1477.08 259.342 1477.12C262.673 1477.14 266.135 1478.36 267.486 1481.63C267.987 1482.66 269.563 1481.85 269.14 1480.8Z" fill="black"/>
<path d="M291.86 1477.71C293.992 1486.62 294.711 1495.62 294.046 1504.74C294.627 1504.76 295.236 1504.83 295.818 1504.85C295.966 1500.78 296.115 1496.7 296.334 1492.65C296.588 1488.27 296.779 1479.63 303.615 1481.98C308.379 1483.6 307.351 1489.78 307.598 1493.72C307.845 1497.66 308.636 1501.47 309.799 1505.25C310.144 1506.32 311.871 1505.98 311.533 1504.87C310.354 1501.16 309.61 1497.48 309.39 1493.58C309.232 1490.87 309.486 1487.95 308.73 1485.29C307.833 1482.12 305.429 1479.78 302.021 1479.78C298.682 1479.8 296.275 1481.86 295.315 1484.98C293.501 1490.91 294.232 1498.55 294.027 1504.66C293.992 1505.79 295.721 1505.93 295.798 1504.77C296.503 1495.47 295.745 1486.32 293.576 1477.26C293.327 1476.25 291.6 1476.59 291.86 1477.71Z" fill="black"/>
<path d="M336.007 1463.96C328.226 1479.28 323.781 1500.45 339.438 1512.6C340.339 1513.31 341.337 1511.82 340.428 1511.13C325.575 1499.65 330.153 1479.35 337.47 1464.95C337.993 1463.93 336.53 1462.94 336.007 1463.96Z" fill="black"/>
<path d="M389.875 1469.33C395.379 1482.3 401.392 1498.2 391.596 1510.76C390.88 1511.66 392.377 1512.66 393.059 1511.75C403.259 1498.7 397.221 1482.09 391.445 1468.54C391.021 1467.49 389.417 1468.27 389.875 1469.33Z" fill="black"/>
<path d="M410.157 1489.07C417.816 1489.89 425.496 1490.44 433.204 1490.72C434.332 1490.75 434.473 1488.99 433.31 1488.94C425.602 1488.67 417.923 1488.11 410.264 1487.3C409.124 1487.15 409.018 1488.93 410.157 1489.07Z" fill="black"/>
<path d="M413.15 1500.01C420.125 1500.45 427.099 1500.89 434.108 1501.33C435.228 1501.4 435.37 1499.64 434.214 1499.56C427.24 1499.12 420.266 1498.68 413.257 1498.24C412.137 1498.17 411.995 1499.93 413.15 1500.01Z" fill="black"/>
<path d="M473.852 1455.43C468.101 1453.47 460.159 1457.32 461.268 1464.43C461.664 1466.9 463.573 1467.7 465.839 1468.21C468.838 1468.88 470.942 1468.33 473.245 1470.79C478.029 1475.9 470.986 1480 466.305 1480.11C465.161 1480.15 465.055 1481.92 466.199 1481.89C471.694 1481.73 478.382 1478.07 476.375 1471.54C475.623 1469.02 473.642 1467.73 471.166 1467.17C469.737 1466.85 466.273 1467.1 465.152 1466.22C464.56 1464.62 463.968 1463.02 463.41 1461.43C464.038 1460.43 464.7 1459.45 465.328 1458.45C467.603 1456.33 470.523 1456.21 473.285 1457.13C474.35 1457.44 474.945 1455.78 473.852 1455.43Z" fill="black"/>
<path d="M486.559 1462.62C485.979 1467.95 486.059 1473.28 486.721 1478.63C486.868 1479.77 488.603 1479.39 488.455 1478.26C487.789 1473.08 487.783 1467.92 488.33 1462.72C488.435 1461.61 486.663 1461.51 486.559 1462.62Z" fill="black"/>
<path d="M487.441 1454.64C488.597 1454.72 488.703 1452.95 487.548 1452.87C486.393 1452.79 486.286 1454.57 487.441 1454.64Z" fill="black"/>
<path d="M496.668 1456.47C497.084 1463.23 497.493 1470.03 497.944 1476.8C498.022 1477.92 499.596 1478.09 499.716 1476.91C500.052 1473.8 499.72 1470.72 500.013 1467.63C500.371 1463.61 504.675 1455.09 509.672 1461.53C512.9 1465.74 511.285 1475.01 510.87 1479.94C510.757 1481.09 512.529 1481.19 512.641 1480.05C513.078 1474.54 515.577 1459.23 507.226 1457.75C496.976 1455.91 498.598 1471.31 497.979 1476.81C498.561 1476.83 499.169 1476.9 499.751 1476.92C499.334 1470.15 498.926 1463.35 498.474 1456.58C498.362 1455.46 496.598 1455.32 496.668 1456.47Z" fill="black"/>
<path d="M443.034 1491.65C495.451 1492.74 547.906 1492.51 600.288 1490.98C601.432 1490.95 601.539 1489.17 600.395 1489.21C547.978 1490.73 495.557 1490.96 443.141 1489.88C442.013 1489.84 441.906 1491.62 443.034 1491.65Z" fill="black"/>
<path d="M483.76 1508.17C476.266 1510.36 466.851 1517.66 467.785 1526.52C468.386 1532.3 480.737 1537.98 482.83 1530.98C483.152 1529.88 481.482 1529.32 481.161 1530.42C480.742 1531.79 475.999 1531.85 474.802 1531.47C473.265 1530.98 472.204 1530.48 471.118 1529.29C468.413 1526.33 469.838 1522.29 471.666 1519.22C474.473 1514.58 478.969 1511.38 484.139 1509.9C485.198 1509.59 484.855 1507.87 483.76 1508.17Z" fill="black"/>
<path d="M495.903 1517.21C491.162 1519.22 488.341 1524.74 489.88 1529.78C491.346 1534.66 496.765 1537.6 501.684 1536.91C507.025 1536.14 510.872 1531.11 510.932 1525.81C510.954 1523.76 510.465 1521.38 508.931 1519.89C506.384 1517.38 500.266 1517.21 496.918 1516.45C495.802 1516.2 495.242 1517.87 496.358 1518.12C500.376 1518.99 508.107 1519.16 509.018 1524.05C509.842 1528.53 507.072 1533.66 502.582 1534.88C498.247 1536.07 492.973 1533.78 491.638 1529.3C490.368 1525.02 492.667 1520.51 496.72 1518.79C497.734 1518.36 496.959 1516.75 495.903 1517.21Z" fill="black"/>
<path d="M525.518 1512.64C521.369 1511.7 517.732 1515.32 519.052 1519.54C519.697 1521.55 521.313 1523.16 523.206 1524.03C524.801 1524.75 527.403 1524.76 528.714 1525.93C532.105 1528.93 528.601 1531.95 526.369 1532.92C525.072 1533.47 523.842 1533.56 522.451 1533.39C521.311 1533.24 521.205 1535.01 522.344 1535.16C526.31 1535.61 531.745 1533.29 532.055 1528.66C532.197 1526.57 530.942 1525.15 529.185 1524.17C528.043 1523.54 526.772 1523.33 525.505 1522.93C524.107 1522.47 522.987 1522.07 522.084 1520.88C520.675 1519.98 520.629 1518.72 521.859 1517.16C521.646 1514.7 522.673 1513.72 524.994 1514.32C526.04 1514.55 526.634 1512.89 525.518 1512.64Z" fill="black"/>
<path d="M554.007 1503.96C548.803 1509.17 543.697 1517.18 544.421 1524.86C545.119 1532.16 552.273 1535.86 558.181 1538.59C559.207 1539.08 559.775 1537.37 558.741 1536.92C552.956 1534.29 545.996 1530.71 546.113 1523.37C546.243 1516.62 550.537 1509.92 555.131 1505.32C555.971 1504.52 554.813 1503.16 554.007 1503.96Z" fill="black"/>
<path d="M568.391 1511.68C569.913 1509.97 572.069 1509.83 574.008 1510.82C576.606 1512.14 577.419 1515.04 577.204 1517.77C576.86 1522.39 574.143 1529.4 568.438 1528.37C567.315 1528.15 567.208 1529.92 568.332 1530.14C575.788 1531.53 579.686 1521.56 578.922 1515.52C578.245 1510.24 571.517 1505.46 567.224 1510.35C566.481 1511.21 567.648 1512.54 568.391 1511.68Z" fill="black"/>
<path d="M581.091 1507.69C578.748 1508 577.97 1509.99 577.463 1512.08C576.712 1515.24 575.318 1520.94 576.727 1524.12C578.767 1528.72 587.519 1527.28 590.386 1524.48C591.191 1523.68 590.024 1522.35 589.219 1523.16C586.905 1525.46 578.878 1526.76 578.191 1522.17C577.819 1519.6 578.323 1509.89 581.461 1509.46C582.567 1509.27 582.189 1507.53 581.091 1507.69Z" fill="black"/>
<path d="M591.198 1501.06C594.682 1501.37 597.742 1506.17 599.494 1508.8C601.246 1511.43 602.726 1514.29 603.526 1517.41C605.127 1523.63 603.772 1530.29 598.868 1534.64C598.001 1535.4 599.203 1536.74 600.035 1535.97C605.805 1530.86 607.13 1522.87 604.865 1515.69C603.142 1510.17 597.84 1499.89 591.296 1499.33C590.149 1499.21 590.042 1500.99 591.198 1501.06Z" fill="black"/>
<path d="M543.517 1452.34C538.312 1457.54 533.207 1465.55 533.931 1473.23C534.629 1480.53 541.783 1484.24 547.691 1486.96C548.717 1487.45 549.285 1485.75 548.251 1485.29C542.466 1482.67 535.506 1479.08 535.622 1471.74C535.753 1464.99 540.047 1458.3 544.641 1453.69C545.489 1452.86 544.322 1451.53 543.517 1452.34Z" fill="black"/>
<path d="M557.901 1460.05C559.423 1458.34 561.579 1458.21 563.519 1459.2C566.116 1460.51 566.929 1463.41 566.715 1466.15C566.37 1470.76 563.653 1477.77 557.949 1476.74C556.825 1476.52 556.718 1478.3 557.842 1478.51C565.298 1479.9 569.196 1469.93 568.432 1463.9C567.755 1458.61 561.027 1453.83 556.735 1458.73C555.999 1459.55 557.158 1460.91 557.901 1460.05Z" fill="black"/>
<path d="M570.567 1456.06C568.224 1456.37 567.446 1458.36 566.939 1460.44C566.188 1463.61 564.793 1469.3 566.202 1472.48C568.242 1477.08 576.995 1475.65 579.861 1472.85C580.667 1472.04 579.5 1470.72 578.695 1471.52C576.38 1473.82 568.353 1475.13 567.666 1470.54C567.295 1467.96 567.799 1458.25 570.937 1457.83C572.078 1457.64 571.699 1455.91 570.567 1456.06Z" fill="black"/>
<path d="M350.857 1477.57C353.601 1474.34 358.276 1474.73 361.467 1476.99C364.88 1479.41 365.882 1483.74 365.644 1487.72C365.198 1495.06 360.673 1507.16 351.342 1505.31C350.253 1505.1 349.658 1506.77 350.782 1506.98C362.283 1509.28 368.233 1494.28 367.402 1484.96C366.661 1476.55 356.167 1468.65 349.421 1476.62C348.651 1477.44 350.113 1478.43 350.857 1477.57Z" fill="black"/>
<path d="M371.359 1472.3C367.93 1472.55 366.679 1475.82 366.01 1478.79C365.196 1482.23 364.82 1485.85 364.538 1489.38C364.344 1491.86 363.736 1495.21 364.763 1497.64C366.195 1501.04 370.551 1501.55 373.835 1501.77C378.266 1502.11 382.514 1501.31 385.7 1498.07C386.505 1497.26 385.339 1495.94 384.533 1496.75C380.356 1500.97 367.206 1502.4 366.137 1494.8C365.682 1491.61 366.451 1487.72 366.864 1484.59C367.289 1481.57 367.443 1474.38 371.772 1474.04C372.854 1473.95 372.476 1472.22 371.359 1472.3Z" fill="black"/>
<path d="M580.708 1449.44C584.193 1449.75 587.252 1454.54 589.039 1457.18C590.791 1459.81 592.271 1462.67 593.071 1465.79C594.672 1472.01 593.317 1478.67 588.413 1483.03C587.546 1483.78 588.748 1485.12 589.58 1484.35C595.351 1479.24 596.675 1471.26 594.411 1464.07C592.687 1458.55 587.385 1448.27 580.842 1447.71C579.659 1447.59 579.561 1449.33 580.708 1449.44Z" fill="black"/>
<path d="M288.363 1153.74L372.304 1129.65L375.795 1143.26C375.776 1143.31 375.754 1143.37 375.73 1143.44C375.618 1143.75 375.458 1144.21 375.265 1144.8C374.88 1145.97 374.364 1147.67 373.835 1149.76C372.777 1153.95 371.663 1159.76 371.446 1166.24C371.409 1167.18 371.409 1168.16 371.409 1169.12V1169.13V1169.13V1169.13V1169.13V1169.13V1169.13V1169.13V1169.13V1169.13V1169.13V1169.13V1169.13V1169.13V1169.13V1169.13V1169.13V1169.13V1169.13V1169.13V1169.13V1169.14V1169.14V1169.14V1169.14V1169.14V1169.14V1169.14V1169.14V1169.14V1169.14V1169.14V1169.14V1169.14V1169.14V1169.14V1169.14V1169.14V1169.14V1169.14V1169.14V1169.14V1169.14V1169.14V1169.14V1169.14V1169.14V1169.14V1169.14V1169.14V1169.14V1169.14V1169.14V1169.14V1169.14V1169.14V1169.14V1169.14V1169.14V1169.14V1169.14V1169.14V1169.14V1169.14V1169.14V1169.14V1169.14V1169.14V1169.14V1169.14V1169.14V1169.14V1169.14V1169.14V1169.14V1169.14V1169.14V1169.14V1169.15V1169.15V1169.15V1169.15V1169.15V1169.15V1169.15V1169.15V1169.15V1169.15V1169.15V1169.15V1169.15V1169.15V1169.15V1169.15V1169.15V1169.15V1169.15V1169.15V1169.15V1169.15V1169.15V1169.15V1169.15V1169.15V1169.15V1169.15V1169.15V1169.15V1169.15V1169.15V1169.15V1169.15V1169.15V1169.15V1169.15V1169.15V1169.15V1169.15V1169.15V1169.15V1169.15V1169.15V1169.15V1169.15V1169.15V1169.15V1169.15V1169.15V1169.15V1169.15V1169.15V1169.15V1169.15V1169.15V1169.15V1169.15V1169.15V1169.15V1169.15V1169.15V1169.15V1169.15V1169.15V1169.15V1169.15V1169.15V1169.15V1169.15V1169.15V1169.15V1169.16V1169.16V1169.16V1169.16V1169.16V1169.16V1169.16V1169.16V1169.16V1169.16V1169.16V1169.16V1169.16V1169.16V1169.16V1169.16V1169.16V1169.16V1169.16V1169.16V1169.16V1169.16V1169.16V1169.16V1169.16V1169.16V1169.16V1169.16V1169.16V1169.16V1169.16V1169.16V1169.16V1169.16V1169.16V1169.16V1169.16V1169.16V1169.16V1169.16V1169.16V1169.16V1169.16V1169.16V1169.16V1169.16V1169.16V1169.16V1169.16V1169.16V1169.16V1169.16V1169.16V1169.16V1169.16V1169.16V1169.16V1169.16V1169.16V1169.16V1169.16V1169.16V1169.16V1169.16V1169.16V1169.16V1169.16V1169.16V1169.16V1169.16V1169.16V1169.16V1169.16V1169.16V1169.16V1169.16V1169.16V1169.16V1169.16V1169.16V1169.16V1169.16V1169.16V1169.16V1169.16V1169.16V1169.16V1169.16V1169.16V1169.17V1169.17V1169.17V1169.17V1169.17V1169.17V1169.17V1169.17V1169.17V1169.17V1169.17V1169.17V1169.17V1169.17V1169.17V1169.17V1169.17V1169.17V1169.17V1169.17V1169.17V1169.17V1169.17V1169.17V1169.17V1169.17V1169.17V1169.17V1169.17V1169.17V1169.17V1169.17V1169.17V1169.17V1169.17V1169.17V1169.17V1169.17V1169.17V1169.17V1169.17V1169.17V1169.17V1169.17V1169.17V1169.17V1169.17V1169.17V1169.17V1169.17V1169.17V1169.17V1169.17V1169.17V1169.17V1169.17V1169.17V1169.17V1169.17V1169.17V1169.17V1169.17V1169.17V1169.17V1169.17V1169.17V1169.17V1169.17V1169.17V1169.17V1169.17V1169.17V1169.17V1169.17V1169.17V1169.17V1169.17V1169.17V1169.17V1169.17V1169.17V1169.17V1169.17V1169.17V1169.17V1169.17V1169.17V1169.17V1169.17V1169.17V1169.17V1169.17V1169.17V1169.17V1169.18V1169.18V1169.18V1169.18V1169.18V1169.18V1169.18V1169.18V1169.18V1169.18V1169.18V1169.18V1169.18V1169.18V1169.18V1169.18V1169.18V1169.18V1169.18V1169.18V1169.18V1169.18V1169.18V1169.18V1169.18V1169.18V1169.18V1169.18V1169.18V1169.18V1169.18V1169.18V1169.18V1169.18V1169.18V1169.18V1169.18V1169.18V1169.18V1169.18V1169.18V1169.18V1169.18V1169.18V1169.18V1169.18V1169.18V1169.18V1169.18V1169.18V1169.18V1169.18V1169.18V1169.18V1169.18V1169.18V1169.18V1169.18V1169.18V1169.18V1169.18V1169.18V1169.18V1169.18V1169.18V1169.18V1169.18V1169.18V1169.18V1169.18V1169.18V1169.18V1169.18V1169.18V1169.18V1169.18V1169.18V1169.18V1169.18V1169.19V1169.19V1169.19V1169.19V1169.19V1169.19V1169.19V1169.19V1169.19V1169.19V1169.19V1169.19V1169.19V1169.19V1169.19V1169.19V1169.19V1169.19V1169.19V1169.19V1169.19V1169.19V1169.19V1169.19V1169.19V1169.19V1169.19V1169.19V1169.19V1169.19V1169.19V1169.19V1169.19V1169.19V1169.19V1169.19V1169.19V1169.19V1169.19V1169.19V1169.19V1169.19V1169.19V1169.19V1169.19V1169.19V1169.19V1169.19V1169.19V1169.19V1169.19V1169.19V1169.19V1169.19V1169.19V1169.19V1169.19V1169.19V1169.19V1169.19V1169.19V1169.19V1169.2V1169.2V1169.2V1169.2V1169.2V1169.2V1169.2V1169.2V1169.2V1169.2V1169.2V1169.2V1169.2V1169.2V1169.2V1169.2V1169.2V1169.2V1169.2V1169.2V1169.2V1169.2V1169.2V1169.2V1169.2V1169.2V1169.2V1169.2V1169.2V1169.2V1169.2V1169.2V1169.2V1169.2V1169.2V1169.2V1169.2V1169.2V1169.2V1169.2C371.409 1170.18 371.445 1171.16 371.517 1172.17L288.363 1153.74ZM288.363 1153.74L293.822 1168.12C304.636 1174.45 311.086 1181.84 314.624 1189.42C318.191 1197.06 318.76 1204.83 317.948 1211.75C317.137 1218.67 314.946 1224.77 312.966 1229.13C311.974 1231.32 311.033 1233.08 310.337 1234.29C309.989 1234.9 309.702 1235.37 309.501 1235.69C309.48 1235.72 309.461 1235.75 309.442 1235.78L314.981 1253.56L403.634 1227.77L398.124 1210.88C396.884 1210.34 395.71 1209.75 394.606 1209.17L394.595 1209.16L394.595 1209.16C394.383 1209.04 394.174 1208.92 393.982 1208.81L393.975 1208.8C393.776 1208.68 393.594 1208.58 393.415 1208.48C392.609 1208.04 391.806 1207.57 391.044 1207.09L391.03 1207.08L391.016 1207.08L391.01 1207.07C390.592 1206.79 390.154 1206.5 389.747 1206.21C389.09 1205.77 388.437 1205.3 387.86 1204.86C387.629 1204.69 387.418 1204.52 387.226 1204.36L387.219 1204.35C387.021 1204.19 386.84 1204.04 386.645 1203.9L386.617 1203.88L386.59 1203.85C386.431 1203.72 386.263 1203.57 386.089 1203.43C385.723 1203.12 385.332 1202.79 384.958 1202.44C384.746 1202.24 384.555 1202.05 384.386 1201.88L384.379 1201.88C384.202 1201.7 384.051 1201.55 383.895 1201.41L383.875 1201.39L383.857 1201.37C383.618 1201.13 383.38 1200.89 383.15 1200.65L383.146 1200.64C382.913 1200.4 382.687 1200.17 382.462 1199.94L382.444 1199.92L382.426 1199.9C382.256 1199.72 382.087 1199.52 381.928 1199.33C381.765 1199.14 381.612 1198.96 381.461 1198.8L381.453 1198.79L381.445 1198.78C381.001 1198.26 380.597 1197.75 380.206 1197.25L380.205 1197.25C379.904 1196.87 379.608 1196.46 379.354 1196.1C378.949 1195.55 378.572 1194.98 378.23 1194.38C378.178 1194.29 378.109 1194.18 378.033 1194.06C377.879 1193.82 377.695 1193.53 377.552 1193.27C377.319 1192.9 377.09 1192.46 376.886 1192.07C376.775 1191.86 376.671 1191.67 376.578 1191.5L376.566 1191.48L376.555 1191.46C376.471 1191.29 376.387 1191.13 376.297 1190.96L376.295 1190.96C376.207 1190.79 376.113 1190.61 376.019 1190.42C375.683 1189.75 375.386 1189.05 375.104 1188.38L375.098 1188.36L375.09 1188.34L375.084 1188.32C375.041 1188.21 374.989 1188.09 374.925 1187.95C374.865 1187.81 374.793 1187.64 374.729 1187.47C374.402 1186.64 374.107 1185.83 373.848 1184.98L373.84 1184.95L373.834 1184.93C373.834 1184.93 373.832 1184.92 373.826 1184.9C373.822 1184.89 373.816 1184.87 373.808 1184.85C373.805 1184.84 373.801 1184.83 373.797 1184.82L373.792 1184.81C373.77 1184.75 373.731 1184.65 373.7 1184.53C372.426 1180.45 371.736 1176.26 371.518 1172.22L372.517 1172.17L372.017 1172.17L372.016 1172.17L288.363 1153.74ZM371.519 1172.17L372.32 1172.15L371.519 1172.17ZM371.519 1172.17L371.517 1172.17L371.519 1172.17Z" fill="#F0E704" stroke="black" stroke-width="2"/>
<path d="M271.056 1144.67L357.031 1120L360.856 1134.91C360.856 1134.91 341.695 1183.86 382.984 1201.73L388.954 1220.04L298.296 1246.42L292.326 1227.26C292.326 1227.26 320.424 1185.54 276.99 1160.44L271.056 1144.67Z" fill="#004AB3"/>
<path d="M331.077 1187.25C333.901 1187.25 336.189 1184.96 336.189 1182.14C336.189 1179.31 333.901 1177.03 331.077 1177.03C328.254 1177.03 325.965 1179.31 325.965 1182.14C325.965 1184.96 328.254 1187.25 331.077 1187.25Z" fill="#F5F8FB"/>
<path d="M382.984 1201.7C360.534 1191.97 355.958 1173.06 356.459 1157.83C343.553 1186.11 323.034 1216.61 292.326 1227.26L298.26 1246.39L388.918 1220L382.984 1201.7Z" fill="#01419C"/>
<path d="M307.019 1151.96C308.306 1151.96 331.9 1144.74 331.9 1144.74L352.956 1213.28L326.287 1221.68L307.019 1151.96Z" fill="#F5F8FB"/>
<path d="M319.173 1148.57L333.794 1143.74L354.564 1212.85L339.335 1217.71" fill="#E1E8EF"/>
<path d="M332.257 1191.18C334.804 1191.18 336.869 1189.12 336.869 1186.57C336.869 1184.02 334.804 1181.96 332.257 1181.96C329.71 1181.96 327.646 1184.02 327.646 1186.57C327.646 1189.12 329.71 1191.18 332.257 1191.18Z" fill="#004AB3"/>
<path d="M861.412 1441.67L1089.52 1228.36C1089.59 1228.3 1089.67 1228.24 1089.77 1228.17L1089.81 1228.13C1089.91 1228.07 1090.02 1227.98 1090.13 1227.89L1090.49 1227.6L1126.17 1207.71L1145.91 1196.71C1146.12 1196.63 1146.24 1196.59 1146.31 1196.57C1146.5 1196.55 1146.71 1196.6 1146.86 1196.67C1146.93 1196.72 1146.98 1196.77 1147.01 1196.81C1147.02 1196.81 1147.02 1196.82 1147.03 1196.82L1147.06 1196.94L1147.17 1197.09C1147.19 1197.11 1147.21 1197.16 1147.24 1197.25C1147.24 1197.33 1147.26 1197.4 1147.27 1197.46C1147.28 1197.62 1147.23 1197.8 1147.11 1197.98L1147.1 1197.98L1147.1 1197.99L1134.61 1216.48L1134.61 1216.48L1112.77 1248.75L1112.68 1248.9L1112.63 1249.07C1112.56 1249.34 1112.48 1249.61 1112.38 1249.86L1112.38 1249.87C1112.24 1250.22 1112.04 1250.55 1111.79 1250.92C1111.55 1251.26 1111.28 1251.6 1110.97 1251.88L1110.96 1251.89L997.838 1359.02L884.727 1466.14C884.724 1466.15 884.722 1466.15 884.719 1466.15C883.882 1466.91 882.883 1467.47 881.825 1467.74L881.804 1467.75L881.782 1467.76C881.503 1467.84 881.178 1467.89 880.746 1467.94C879.92 1467.99 879.132 1468.01 878.392 1467.97C878.272 1467.96 878.143 1467.95 877.998 1467.93L877.991 1467.93C877.845 1467.91 877.682 1467.89 877.523 1467.88L877.523 1467.88L877.514 1467.88C877.404 1467.87 877.301 1467.86 877.204 1467.85C876.821 1467.82 876.531 1467.8 876.238 1467.74C876.068 1467.7 875.908 1467.66 875.734 1467.61L875.729 1467.61C875.565 1467.57 875.388 1467.52 875.198 1467.48C875.029 1467.43 874.852 1467.38 874.691 1467.34L874.683 1467.34C874.516 1467.29 874.365 1467.25 874.228 1467.21C874.072 1467.16 873.91 1467.09 873.722 1467.01L873.711 1467.01C873.527 1466.93 873.316 1466.84 873.103 1466.77C873.049 1466.75 872.999 1466.73 872.953 1466.71C872.736 1466.63 872.598 1466.58 872.445 1466.5L872.4 1466.47L872.353 1466.45C871.999 1466.31 871.668 1466.12 871.269 1465.89C871.172 1465.82 871.071 1465.76 871.002 1465.72C870.996 1465.72 870.99 1465.72 870.984 1465.71C870.891 1465.66 870.834 1465.63 870.786 1465.59L870.759 1465.57L870.73 1465.56C870.458 1465.39 870.243 1465.23 869.996 1465.05C869.855 1464.95 869.703 1464.84 869.525 1464.71L869.524 1464.71L869.523 1464.71L869.523 1464.71L869.522 1464.71L869.521 1464.71L869.521 1464.71L869.52 1464.71L869.519 1464.71L869.519 1464.71L869.518 1464.71L869.517 1464.71L869.517 1464.71L869.516 1464.71L869.515 1464.71L869.515 1464.71L869.514 1464.71L869.513 1464.71L869.512 1464.71L869.512 1464.7L869.511 1464.7L869.51 1464.7L869.51 1464.7L869.509 1464.7L869.508 1464.7L869.508 1464.7L869.507 1464.7L869.506 1464.7L869.506 1464.7L869.505 1464.7L869.504 1464.7L869.504 1464.7L869.503 1464.7L869.502 1464.7L869.501 1464.7L869.501 1464.7L869.5 1464.7L869.499 1464.7L869.499 1464.7L869.498 1464.7L869.497 1464.69L869.497 1464.69L869.496 1464.69L869.495 1464.69L869.495 1464.69L869.494 1464.69L869.493 1464.69L869.493 1464.69L869.492 1464.69L869.491 1464.69L869.49 1464.69L869.49 1464.69L869.489 1464.69L869.488 1464.69L869.488 1464.69L869.487 1464.69L869.486 1464.69L869.486 1464.69L869.485 1464.69L869.484 1464.69L869.484 1464.69L869.483 1464.68L869.482 1464.68L869.482 1464.68L869.481 1464.68L869.48 1464.68L869.479 1464.68L869.479 1464.68L869.478 1464.68L869.477 1464.68L869.477 1464.68L869.476 1464.68L869.475 1464.68L869.475 1464.68L869.474 1464.68L869.473 1464.68L869.473 1464.68L869.472 1464.68L869.471 1464.68L869.471 1464.68L869.47 1464.68L869.469 1464.68L869.468 1464.67L869.468 1464.67L869.467 1464.67L869.466 1464.67L869.466 1464.67L869.465 1464.67L869.464 1464.67L869.464 1464.67L869.463 1464.67L869.462 1464.67L869.462 1464.67L869.461 1464.67L869.46 1464.67L869.46 1464.67L869.459 1464.67L869.458 1464.67L869.457 1464.67L869.457 1464.67L869.456 1464.67L869.455 1464.67L869.455 1464.67L869.454 1464.66L869.453 1464.66L869.453 1464.66L869.452 1464.66L869.451 1464.66L869.451 1464.66L869.45 1464.66L869.449 1464.66L869.449 1464.66L869.448 1464.66L869.447 1464.66L869.446 1464.66L869.446 1464.66L869.445 1464.66L869.444 1464.66L869.444 1464.66L869.443 1464.66L869.442 1464.66L869.442 1464.66L869.441 1464.66L869.44 1464.65L869.44 1464.65L869.439 1464.65L869.438 1464.65L869.438 1464.65L869.437 1464.65L869.436 1464.65L869.435 1464.65L869.435 1464.65L869.434 1464.65L869.433 1464.65L869.433 1464.65L869.432 1464.65L869.431 1464.65L869.431 1464.65L869.43 1464.65L869.429 1464.65L869.429 1464.65L869.428 1464.65L869.427 1464.65L869.427 1464.65L869.426 1464.64L869.425 1464.64L869.424 1464.64L869.424 1464.64L869.423 1464.64L869.422 1464.64L869.422 1464.64L869.421 1464.64L869.42 1464.64L869.42 1464.64L869.419 1464.64L869.418 1464.64L869.418 1464.64L869.417 1464.64L869.416 1464.64L869.416 1464.64L869.415 1464.64L869.414 1464.64L869.413 1464.64L869.413 1464.64L869.412 1464.64L869.411 1464.63L869.411 1464.63L869.41 1464.63L869.409 1464.63L869.409 1464.63L869.408 1464.63L869.407 1464.63L869.407 1464.63L869.406 1464.63L869.405 1464.63L869.405 1464.63L869.404 1464.63L869.403 1464.63L869.402 1464.63L869.402 1464.63L869.401 1464.63L869.4 1464.63L869.4 1464.63L869.399 1464.63L869.398 1464.63L869.398 1464.63L869.397 1464.62L869.396 1464.62L869.396 1464.62L869.395 1464.62L869.394 1464.62L869.394 1464.62L869.393 1464.62L869.392 1464.62L869.391 1464.62L869.391 1464.62L869.39 1464.62L869.389 1464.62L869.389 1464.62L869.388 1464.62L869.387 1464.62L869.387 1464.62L869.386 1464.62L869.385 1464.62L869.385 1464.62L869.384 1464.62L869.383 1464.62L869.383 1464.61L869.382 1464.61L869.381 1464.61L869.38 1464.61L869.38 1464.61L869.379 1464.61L869.378 1464.61L869.378 1464.61L869.377 1464.61L869.376 1464.61L869.376 1464.61L869.375 1464.61L869.374 1464.61L869.374 1464.61L869.373 1464.61L869.372 1464.61L869.372 1464.61L869.371 1464.61L869.37 1464.61L869.369 1464.61L869.369 1464.61L869.368 1464.6L869.367 1464.6L869.367 1464.6L869.366 1464.6L869.365 1464.6L869.365 1464.6L869.364 1464.6L869.363 1464.6L869.363 1464.6L869.362 1464.6L869.361 1464.6L869.361 1464.6L869.36 1464.6L869.359 1464.6L869.358 1464.6L869.358 1464.6L869.357 1464.6L869.356 1464.6L869.356 1464.6L869.355 1464.6L869.354 1464.6L869.354 1464.59L869.353 1464.59L869.352 1464.59L869.352 1464.59L869.351 1464.59L869.35 1464.59L869.35 1464.59L869.349 1464.59L869.348 1464.59L869.347 1464.59L869.347 1464.59L869.346 1464.59L869.345 1464.59L869.345 1464.59L869.344 1464.59L869.343 1464.59L869.343 1464.59L869.342 1464.59L869.341 1464.59L869.341 1464.59L869.34 1464.59L869.339 1464.58L869.339 1464.58L869.338 1464.58L869.337 1464.58L869.336 1464.58L869.336 1464.58L869.335 1464.58L869.334 1464.58L869.334 1464.58L869.333 1464.58L869.332 1464.58L869.332 1464.58L869.331 1464.58L869.33 1464.58L869.33 1464.58L869.329 1464.58L869.328 1464.58L869.328 1464.58L869.327 1464.58L869.326 1464.58L869.325 1464.57L869.325 1464.57L869.324 1464.57L869.323 1464.57L869.323 1464.57L869.322 1464.57L869.321 1464.57L869.321 1464.57L869.32 1464.57L869.319 1464.57L869.319 1464.57L869.318 1464.57L869.317 1464.57L869.317 1464.57L869.316 1464.57L869.315 1464.57L869.314 1464.57L869.314 1464.57L869.313 1464.57L869.312 1464.57L869.312 1464.57L869.311 1464.56L869.31 1464.56L869.31 1464.56L869.309 1464.56L869.308 1464.56L869.308 1464.56L869.307 1464.56L869.306 1464.56L869.306 1464.56L869.305 1464.56L869.304 1464.56L869.303 1464.56L869.303 1464.56L869.302 1464.56L869.301 1464.56L869.301 1464.56L869.3 1464.56L869.299 1464.56L869.299 1464.56L869.298 1464.56L869.297 1464.56L869.297 1464.55L869.296 1464.55L869.295 1464.55L869.295 1464.55L869.294 1464.55L869.293 1464.55L869.292 1464.55L869.292 1464.55L869.291 1464.55L869.29 1464.55L869.29 1464.55L869.289 1464.55L869.288 1464.55L869.288 1464.55L869.287 1464.55L869.286 1464.55L869.286 1464.55L869.285 1464.55L869.284 1464.55L869.284 1464.55L869.283 1464.55L869.282 1464.54L869.281 1464.54L869.281 1464.54L869.28 1464.54L869.279 1464.54L869.279 1464.54L869.278 1464.54L869.277 1464.54L869.277 1464.54L869.276 1464.54L869.275 1464.54L869.275 1464.54L869.274 1464.54L869.273 1464.54L869.273 1464.54L869.272 1464.54L869.271 1464.54L869.27 1464.54L869.27 1464.54L869.269 1464.54L869.268 1464.54L869.268 1464.53L869.267 1464.53L869.266 1464.53L869.266 1464.53L869.265 1464.53L869.264 1464.53L869.264 1464.53L869.263 1464.53L869.262 1464.53L869.262 1464.53L869.261 1464.53L869.26 1464.53L869.259 1464.53L869.259 1464.53L869.258 1464.53L869.257 1464.53L869.257 1464.53L869.256 1464.53L869.255 1464.53L869.255 1464.53L869.254 1464.53L869.253 1464.52L869.253 1464.52L869.252 1464.52L869.251 1464.52L869.251 1464.52L869.25 1464.52L869.249 1464.52L869.248 1464.52L869.248 1464.52L869.247 1464.52L869.246 1464.52L869.246 1464.52L869.245 1464.52L869.244 1464.52L869.244 1464.52L869.243 1464.52L869.242 1464.52L869.242 1464.52L869.241 1464.52L869.24 1464.52L869.24 1464.52L869.239 1464.51L869.238 1464.51L869.237 1464.51L869.237 1464.51L869.236 1464.51L869.235 1464.51L869.235 1464.51L869.234 1464.51L869.233 1464.51L869.233 1464.51L869.232 1464.51L869.231 1464.51L869.231 1464.51L869.23 1464.51L869.229 1464.51L869.229 1464.51L869.228 1464.51L869.227 1464.51L869.226 1464.51L869.226 1464.51L869.225 1464.51L869.224 1464.5L869.224 1464.5L869.223 1464.5L869.222 1464.5L869.222 1464.5L869.221 1464.5L869.22 1464.5L869.22 1464.5L869.219 1464.5L869.218 1464.5L869.218 1464.5L869.217 1464.5L869.216 1464.5L869.215 1464.5L869.215 1464.5L869.214 1464.5L869.213 1464.5L869.213 1464.5L869.212 1464.5L869.211 1464.5L869.211 1464.49L869.21 1464.49L869.209 1464.49L869.209 1464.49L869.208 1464.49L869.207 1464.49L869.207 1464.49L869.206 1464.49L869.205 1464.49L869.204 1464.49L869.204 1464.49L869.203 1464.49L869.202 1464.49L869.202 1464.49L869.201 1464.49L869.2 1464.49L869.2 1464.49L869.199 1464.49L869.199 1464.49C868.831 1464.19 868.497 1463.89 868.121 1463.55C868.079 1463.52 868.037 1463.48 867.994 1463.44L867.985 1463.43C867.97 1463.41 867.948 1463.39 867.923 1463.36C867.901 1463.34 867.872 1463.31 867.837 1463.28C867.412 1462.86 867.008 1462.46 866.625 1462.03C862.81 1457.69 860.643 1451.92 859.582 1447.96C858.979 1445.7 859.676 1443.29 861.412 1441.67C861.412 1441.67 861.412 1441.67 861.412 1441.67Z" fill="#F0E704" stroke="black" stroke-width="2"/>
<path d="M1098.92 1232.02L1086.23 1217.88C1083.44 1214.78 1078.66 1214.56 1075.61 1217.42L847.87 1431.12C845.894 1432.99 845.049 1435.79 845.754 1438.44C847.798 1445.95 853.652 1460.26 868.028 1459.05C869.722 1458.92 871.344 1458.19 872.592 1457.01L1098.46 1242.32C1101.45 1239.59 1101.62 1234.99 1098.92 1232.02Z" fill="#0054CB"/>
<path d="M1090.47 1226.25C1088.86 1227.93 901.423 1406.79 853.097 1452.88C856.567 1456.79 861.399 1459.61 868.061 1459.06C869.754 1458.93 871.376 1458.21 872.624 1457.02L1098.49 1242.33C1101.42 1239.58 1101.58 1234.97 1098.89 1232L1086.2 1217.86C1085.14 1216.68 1083.79 1215.94 1082.33 1215.59L1090.47 1226.25Z" fill="#004AB3"/>
<path d="M1076.21 1216.83L1132.2 1185.49C1133.99 1184.5 1135.89 1186.57 1134.74 1188.28L1100.5 1239.09L1076.21 1216.83Z" fill="#EFC4A3"/>
<path d="M1122.29 1206.75L1134.76 1188.24C1135.89 1186.57 1133.99 1184.5 1132.21 1185.46L1112.43 1196.53C1114.85 1203.98 1118.94 1206.28 1122.29 1206.75Z" fill="#184F78"/>
<path d="M1436.39 1559.13C1452.51 1519.41 1453.47 1475.44 1439.06 1436.88C1424.65 1398.32 1396.06 1368.34 1359.56 1353.53C1323.07 1338.72 1281.67 1340.3 1244.46 1357.91C1207.26 1375.52 1177.3 1407.73 1161.19 1447.45L1298.79 1503.29L1436.39 1559.13Z" fill="#F0E704"/>
<mask id="path-124-outside-2_404_279" maskUnits="userSpaceOnUse" x="1187.72" y="1290.76" width="338.203" height="258.82" fill="black">
<rect fill="white" x="1187.72" y="1290.76" width="338.203" height="258.82"/>
<path d="M1464.08 1544.09C1478.91 1507.17 1478.85 1466.03 1463.91 1429.71C1448.97 1393.4 1420.37 1364.88 1384.42 1350.43C1348.46 1335.99 1308.08 1336.8 1272.17 1352.68C1236.26 1368.57 1207.75 1398.24 1192.92 1435.15L1328.5 1489.62L1464.08 1544.09Z"/>
</mask>
<path d="M1464.08 1544.09C1478.91 1507.17 1478.85 1466.03 1463.91 1429.71C1448.97 1393.4 1420.37 1364.88 1384.42 1350.43C1348.46 1335.99 1308.08 1336.8 1272.17 1352.68C1236.26 1368.57 1207.75 1398.24 1192.92 1435.15L1328.5 1489.62L1464.08 1544.09Z" stroke="#004AB3" stroke-width="8" stroke-linecap="round" stroke-dasharray="30 45" mask="url(#path-124-outside-2_404_279)"/>
</g>
<defs>
<clipPath id="clip0_404_279">
<rect width="1800" height="1800" fill="white"/>
</clipPath>
</defs>
</svg>
