<?xml version="1.0" standalone="no"?>
<!DOCTYPE svg PUBLIC "-//W3C//DTD SVG 20010904//EN"
 "http://www.w3.org/TR/2001/REC-SVG-20010904/DTD/svg10.dtd">
<svg version="1.0" xmlns="http://www.w3.org/2000/svg"
 width="604.000000pt" height="604.000000pt" viewBox="0 0 604.000000 604.000000"
 preserveAspectRatio="xMidYMid meet">
<metadata>
Created by potrace 1.14, written by Peter Selinger 2001-2017
</metadata>
<g transform="translate(0.000000,604.000000) scale(0.100000,-0.100000)"
fill="#000000" stroke="none">
<path d="M2810 6034 c-19 -2 -80 -9 -135 -15 -337 -36 -685 -142 -1017 -311
-577 -293 -1038 -756 -1333 -1339 -206 -407 -306 -799 -322 -1259 -27 -830
292 -1628 892 -2225 753 -752 1824 -1050 2853 -794 722 179 1369 638 1787
1269 268 404 425 831 487 1320 17 136 17 543 0 680 -127 1020 -739 1892 -1653
2355 -311 158 -613 252 -960 300 -108 15 -521 28 -599 19z m1838 -1105 c-7
-19 -422 -349 -438 -349 -11 0 -30 5 -43 11 -35 16 -54 4 -224 -146 -147 -129
-1107 -1075 -1165 -1148 l-31 -38 105 -107 c179 -183 289 -336 383 -535 197
-415 206 -858 24 -1221 -140 -280 -376 -426 -687 -426 -150 0 -271 42 -393
136 -243 187 -347 483 -310 879 15 155 34 244 81 386 70 211 159 370 347 622
72 95 122 172 117 176 -13 13 -353 275 -472 365 -57 43 -106 84 -108 91 -17
44 146 266 217 295 l31 13 273 -279 272 -279 134 125 c74 69 215 202 314 296
375 356 739 673 943 818 50 37 52 39 52 86 0 31 6 55 18 69 9 11 118 83 241
160 l225 140 48 -66 c27 -37 47 -70 46 -74z m-2964 -649 c23 -11 72 -48 110
-83 l68 -62 -89 -90 c-56 -56 -106 -118 -133 -165 -24 -41 -45 -77 -47 -79 -5
-7 -49 27 -125 98 -85 80 -100 113 -80 179 16 53 115 173 164 200 51 27 80 28
132 2z m289 -258 l28 -29 -79 -79 c-50 -49 -97 -110 -127 -161 l-47 -82 -48
36 -49 36 21 41 c56 110 131 206 202 257 43 32 53 30 99 -19z"/>
<path d="M2426 2860 c-196 -295 -262 -428 -317 -650 -21 -86 -23 -117 -24
-330 0 -229 1 -237 27 -307 14 -40 38 -94 54 -120 40 -70 151 -175 220 -209
56 -28 65 -29 189 -28 110 0 139 3 186 22 133 53 238 166 299 323 44 114 60
189 66 319 12 218 -35 424 -142 630 -75 145 -163 262 -307 414 l-122 129 -129
-193z"/>
</g>
</svg>
